<svg version="1.1" viewBox="0 0 737.48 784.29" xmlns="http://www.w3.org/2000/svg">
  <defs>
    <style>@font-face {
        font-family: Carlito;
        src: url('carlito-regular-webfont.woff2') format('woff');
      }</style>
  </defs>
  <path d="m360.03 0.33533c4.9333-0.23733 9.8697-0.34867 14.809-0.334 58.465-0.188 112.43 19.543 154.1 61.118 14.934 14.903 26.187 31.32 36.009 49.912 33.832 64.042 30.976 127.72 30.768 197.7-0.147 49.447-1.447 98.918-1.4 148.36 4.256-2.828 8.081-6.311 12.405-9.106 12.574-8.127 28.772-13.433 43.84-12.854 15.1 0.58 30.409 7.919 40.627 18.994 7.871 8.531 12.675 19.74 12.073 31.454-0.361 7.008-3.278 18.387-8.713 23.112-1.738 1.511-3.932 2.667-6.301 2.413-3.146-0.337-5.24-2.268-7.22-4.555l-0.451-0.529c-0.671-5.218-0.913-10.954-2.961-15.844-1.816-4.336-4.985-7.194-9.306-8.942-2.878-1.164-5.81-1.537-8.693-0.156-12.501 5.987-19.179 33.636-24 46.149-8.227 21.355-23.296 39.048-44.361 48.45-0.928 13.576-0.541 27.275-0.494 40.876 0.05 14.797-0.123 29.624 0.222 44.417 3.822 1.447 7.26 3.472 10.714 5.629 0.21467-5.848 0.72-11.671 1.516-17.468 3.811-26.708 15.655-52.026 28.922-75.268 2.773-4.858 5.994-11.883 10.673-15.176 1.363-0.96 2.79-1.427 4.461-0.95 1.672 0.478 2.9 1.728 3.764 3.193 2.871 4.869 3.038 12.957 3.986 18.579 7.745 45.933 0.628 68.718-9.809 112.65 6.935-7.266 12.1-16.112 19.04-23.469 4.2273-4.4853 8.823-8.5543 13.787-12.207 11.512-8.365 34.859-21.447 48.762-24.691 3.2-0.747 6.644-1.34 9.564 0.458 0.593 0.805 0.954 1.327 1.102 2.345 1.11 7.66-32.28 51.146-38.055 59.44 5.496-0.859 11.106-2.771 16.675-2.875 2.697-0.05 5.157 0.134 7.139 2.1 0.458 0.964 0.74 1.668 0.665 2.754-0.576 8.326-14.858 23.925-20.886 29.48 2.9653 3.3367 5.9683 6.6393 9.009 9.908 3.7531 8.5406 6.16 13.525 5.5762 28.263-170.46 20.74-449.63 32.963-716.67 1.3466-2.8432-17.185 1.0106-25.848 11.213-35.95-0.22-0.282-0.441-0.564-0.649-0.856-1.232-1.729-1.389-3.489-0.939-5.521 0.622-2.808 2.366-4.565 4.761-6.036 7.998-4.911 16.322-4.189 24.968-2.077-2.823-9.993-7.296-19.868-11.809-29.195-2.144-4.432-5.876-9.848-7.025-14.563-0.296-1.215-0.027-2.901 0.781-3.88 0.82-0.994 2.05-1.305 3.281-1.32 6.951-0.084 26.701 18.158 32.208 23.686-0.705-7.332-3.28-15.396 1.383-21.824l-0.088-0.42c-3.361-16.709-4.779-70.558 5.004-84.383 0.995-1.405 2.467-2.679 4.276-2.724 2.091-0.051 3.867 1.174 5.329 2.54 4.241 3.96 7.339 9.959 9.991 15.044 13.966 26.778 21.961 59.215 22.8 89.367 6.6973-1.358 13.42-2.5743 20.168-3.649-2.823-5.969-6.461-12.096-8.681-18.278-0.896-2.497-2.061-7.434-0.392-9.872 0.711-1.037 1.561-1.394 2.778-1.538 6.532-0.771 16.899 7.725 22.102 11.425-3.495-13.446-9.23-27.738-15.612-40.055-2.587-4.992-5.883-9.693-8.169-14.83-1.095-2.46-1.578-4.829-0.604-7.396 1.134-1.052 1.71-1.521 3.371-1.462 9.515 0.34 24.092 16.11 30.001 22.83 0.957-5.757 3.427-11.382 4.007-17.115 0.522-5.166 0.07-10.65-0.031-15.84-0.16067-7.48 0.0704-14.962-0.111-22.442l-7.014-289.29c-0.36041-14.865-1.098-29.725-0.783-44.618 1.229-57.983 14.502-110.4 53.017-155.16 7.632-8.87 16.13-16.975 24.8-24.816 40.761-36.862 80.629-50.417 134.78-54.45z" fill="#2f0829"/>
  <path d="m448.6 674.37c0.182-0.673 0.35-1.353 0.626-1.996 1.041-2.424 2.843-3.516 5.211-4.418-0.735 2.14-1.273 4.72-2.948 6.306-1.098 0.367-1.754 0.291-2.889 0.108z" fill="#c99343"/>
  <path d="m36.731 682.82c2.092 1.221 3.985 2.756 5.914 4.216 0.399 2.267 1.44 5.458-0.064 7.459-0.165 0.218-0.343 0.426-0.515 0.64z" fill="#ffd4a7"/>
  <path d="m25.688 719.7c1.942-0.216 3.559-0.352 5.489-2e-3l0.231 0.517c-1.944 1.634-4.586 2.453-6.915 3.422-0.938 0.417-1.911 0.894-2.896 1.184-1.232 0.363-1.917 0.322-3.029-0.259l0.136-1.067c2.077-2.562 3.827-2.973 6.984-3.795z" fill="#a2a8a0"/>
  <path d="m447.77 565.74c3.96 0.27 8.956 2.075 12.241 4.243 1.443 0.952 2.416 1.808 2.753 3.562-1.658 0.18-3.153 0.268-4.769-0.24-3.61-1.133-8.357-4.141-10.225-7.565z" fill="#faf9fb"/>
  <path d="m650.76 453.93c-5.1135-0.0298-10.166 0.50973-15.305 1.7041l-3.994 0.87336c-22.334 5.223-33.665 22.747-48.759 37.927-7.529 7.572-15.447 14.155-23.357 21.259 3.694 1.248 7.199 2.4004 11.066 3.0354 12.508 2.052 20.441-0.82251 30.535-8.0945 14.795-9.458 22.898-26.53 38.129-36.319 8.61-5.534 19.091-9.1341 29.343-6.8271 9.42 2.12 16.213 7.443 21.333 15.486-0.55599-2.67-1.1172-5.3408-2.0662-7.9028-3.33-8.99-8.6734-15.09-17.456-19.15-3.277 0.015-6.9034-0.91898-10.171-1.342-3.1399-0.40688-6.2299-0.63179-9.298-0.64969zm-8.6164 30.621c-17.277 13.328-26.531 36.942-47.789 45.116-16.699 6.42-33.192 0.52144-48.62-6.2945-8.552 0.167-22.906-8.646-29.769-13.324-18.619-14.33-38.314-24.822-62.519-21.727-12.565 1.607-23.595 7.169-31.387 17.286-8.038 10.438-12.235 24.459-10.395 37.586 1.983 14.148 10.137 27.857 21.653 36.319 1.771 1.301 7.7286 4.4032 8.4886 6.0602l-0.39407 0.33017c6.649 3.047 18.683 5.5784 25.892 3.9514l0.0426-0.62839c-2.177-0.045-4.4757 0.2493-6.6247 0.0213-5.788-0.614-12.397-3.4466-17.18-6.7206-7.957-5.445-13.922-13.857-15.678-23.41-1.669-9.077-0.19348-20.096 5.1975-27.734 0.304-0.426 0.62257-0.84611 0.9479-1.2568 0.32467-0.41 0.6565-0.82017 1.0012-1.2142 0.34532-0.394 0.70173-0.77361 1.0651-1.1503 0.364-0.37667 0.73632-0.74967 1.1183-1.1077 0.38133-0.358 0.77224-0.70443 1.1716-1.0438 0.39867-0.33867 0.79885-0.66053 1.2142-0.97986 0.41534-0.31867 0.84742-0.62861 1.2781-0.92661 0.43-0.298 0.86537-0.58604 1.31-0.8627 0.44467-0.27667 0.8953-0.5448 1.3526-0.7988 0.458-0.25467 0.91525-0.49291 1.3846-0.72425 0.46933-0.23133 0.94652-0.45234 1.4272-0.66034 0.48066-0.208 0.96914-0.41177 1.4591-0.59643 0.49-0.184 0.98244-0.35123 1.4804-0.51123 0.49866-0.16 1.0064-0.31267 1.5124-0.44733 0.506-0.13533 1.0117-0.25212 1.523-0.36212 0.512-0.11 1.0277-0.2029 1.5444-0.28757 16.696-2.852 30.583 3.7191 43.859 13.015 2.252 2.321 5.4194 4.3583 7.9773 6.4223 5.198 4.192 10.253 8.5921 15.603 12.589 15.444 11.537 33.618 18.89 53.179 15.976 9.641-1.436 18.467-5.7576 26.041-11.812 27.021-21.596 23.611-45.597 41.633-70.092zm-183.88 71.04c-1.155 0.561-1.8215 0.57261-2.3325 1.8106 5.967 5.644 15.996 1.7565 16.338 14.741 0.034 1.318-0.34312 2.5227 0.52188 3.5467l0.71359 0.24497c1.598-1.935 2.423-3.8307 3.291-6.1667-1.473-4.981-3.976-8.8076-8.627-11.354-3.119-1.707-6.4221-2.3984-9.9051-2.8224z" fill="#7c34ff"/>
  <path d="m458.26 555.59c3.483 0.424 6.792 1.116 9.911 2.823 4.651 2.546 7.146 6.369 8.619 11.35-0.868 2.336-1.686 4.235-3.284 6.17l-0.717-0.244c-0.865-1.024-0.49-2.224-0.524-3.542-0.342-12.984-10.365-9.105-16.332-14.749 0.511-1.238 1.172-1.247 2.327-1.808z" fill-opacity=".22853"/>
  <path d="m468.08 646.93c-5.327 6.594-9.702 13.536-13.647 21.021-2.368 0.902-4.17 1.994-5.211 4.418-0.276 0.643-0.444 1.323-0.626 1.996l-10.107-0.409c7.676-11.933 18.138-19.137 29.591-27.026z" fill="#f48d56"/>
  <path d="m708.03 701.78c1.232-0.142 2.398-0.082 3.634-0.04-0.034 0.224-0.015 0.462-0.102 0.67-1.503 3.612-12.123 15.036-15.437 17.384l-8.299-2.673c-2.29-0.882-4.882-1.335-7.267-1.938 8.715-7.366 16.099-11.499 27.471-13.403z" fill="#254436"/>
  <path d="m548.2 579.38c2.978 0.32 5.927 0.895 8.877 1.408-0.133 7.672 0.957 24.084-1.247 30.624-0.734 0.704-1.677 1.464-2.682 1.722-1.371 0.351-1.896-0.084-2.976-0.776-3.924-6.302-2.07-25.431-1.972-32.978z" fill="#1b3657"/>
  <path d="m705.52 651.46c-1.501 2.56-5.289 5.053-7.532 7.116-4.397 4.045-8.633 8.269-13.091 12.247-4.399 3.926-9.05 7.631-13.274 11.744-4.055 3.95-15.434 17.731-18.891 19.764-0.408-0.069-0.905-0.098-1.284-0.259 11.493-16.744 18.382-28.414 35.735-40.215 5.851-3.978 11.864-7.531 18.337-10.397z" fill="#47bd4d"/>
  <path d="m526.67 670.16c1.148-0.164 2.417-0.276 3.569-0.078 6.412 1.098 11.864 11.093 15.163 16.207-6.965-1.186-14.047-1.962-21.051-2.915-6.372-1.901-14.673-1.85-21.313-2.412 7.645-3.85 15.437-8.254 23.632-10.802z" fill="#b1693e"/>
  <path d="m207.32 623.37 1.537 0.453c0.707 1.392 0.996 1.696 0.831 3.291-1.781 1.766-4.807 1.991-7.172 2.435-15.627 2.928-21.978 13.456-28.438 26.68l-5.007-9.134c1.757-3.617 3.998-7.229 6.573-10.322 8.261-9.924 19.416-12.26 31.676-13.403z" fill="#87f6fb"/>
  <path d="m468.23 440.59-1.717-1.097c0.057-1.082 0.098-1.161 0.854-1.896 5.365-5.22 19.625-9.787 27.072-9.479 8.159 0.338 15.339 4.143 20.691 10.194 8.297 9.382 11.728 24.722 12.14 36.921-3.269-4.581-5.746-17.195-9.096-23.656-4.107-7.918-10.753-15.096-19.532-17.675-11.209-3.293-20.847 1.44-30.412 6.688z" fill="#87f6fb"/>
  <g fill="#7c34ff" stroke="#000" stroke-linecap="round" stroke-linejoin="round" stroke-width="19.1">
    <path d="m152.8 495.34-5.4425 2.1621c2.0083 22.462-7.445 35.05-28.704 41.527-37.972 11.568-10.795 43.37-3.9407 43.646-5.3593-6.3684-9.9261-14.821-3.2804-21.994 3.0677-3.3109 7.6586-4.3348 12.057-4.2709 10.886 0.15812 19.495 5.0889 30.663 1.3739 0.537-4.035 0.22507-14.056-0.48993-18.064-0.365-2.048-1.9964-3.7816-2.1514-5.8046-0.059-0.766 1.1146-2.2794 1.1396-4.4094 0.116-11.391 0.16844-22.776 0.14911-34.167z" style="paint-order:stroke fill markers"/>
    <path d="m24.455 455.37c7.2853 17.702 25.589 30.893 44.637 35.616 28.322 7.955 55.852-0.24371 82.255-10.523 1.5275-6.292 0.0496-13.085-0.0107-19.587-8.9825-0.65689-19.388-2.1154-26.211-5.8366-8.1056-0.0539-20.843 7.926-41.697 4.878-16.329-2.3866-31.184-9.782-41.09-23.325-15.554-21.263-1.1805-37.997-1.7148-39.461-2.484-6.8075-29.834 21.879-16.168 58.238z" style="paint-order:stroke fill markers"/>
    <path d="m48.441 314.09c-34.011 1.4312-38.162 28.505-35.935 29.95 7.1854 4.6596 23.725-26.067 50.197-8.1264 31.181 21.132 17.582 98.584 88.294 109.94-0.33201-12.979-0.79895-25.955-0.86271-38.939-40.357-32.348-33.597-59.667-61.39-79.017-10.261-7.1439-29.789-14.246-40.302-13.803z" style="paint-order:stroke fill markers"/>
    <path d="m147.35 297.99c-11.319 16.619-19.51 38.955-20.183 59.239 6.3239 12.071 14.537 22.149 21.791 29.747z" style="paint-order:stroke fill markers"/>
  </g>
  <path d="m139.08 340.2c1.527 0.056 3.102-3e-3 4.572 0.452 0.461 1.587 0.713 2.656 0.466 4.301-0.999 1.257-1.671 1.699-3.295 1.844-0.631 0.056-1.27 0.071-1.903 0.09-0.969-0.8-1.844-1.745-2.742-2.625l-0.018-1.659c0.886-1.481 1.426-1.616 2.92-2.403z" fill="#2f0829"/>
  <defs>
    <linearGradient id="a" x1="751.31" x2="771.42" y1="626.97" y2="545.6" gradientTransform="translate(-154.27 -103.37)" gradientUnits="userSpaceOnUse">
      <stop stop-color="#FFF0FF" offset="0"/>
      <stop stop-color="#FFFDFF" offset="1"/>
    </linearGradient>
  </defs>
  <path d="m551.73 511.76c7.297-3.872 14.075-8.328 20.248-13.837 17.892-15.967 30.194-34.989 53.974-43.797 14.88-5.511 29.899-4.883 44.268 1.805-3.277 0.015-6.902-0.923-10.17-1.346-8.373-1.085-16.383-0.856-24.605 1.055l-3.99 0.875c-22.334 5.223-33.664 22.741-48.758 37.921-7.529 7.572-15.448 14.154-23.358 21.258-2.58-1.215-5.086-2.604-7.609-3.934z" fill="url(#a)"/>
  <path d="m137.1 356.38c1.619 0.374 2.89 0.873 3.874 2.297 0.762 1.105 0.982 2.244 1.214 3.541-1.731 2.165-2.697 2.858-5.476 3.193-0.72-0.934-1.396-1.789-1.764-2.926-0.682-2.11-0.064-3.719 0.889-5.614z" fill="#2f0829"/>
  <path d="m147.85 333.06c-1.651-1.83-3.13-3.857-3.031-6.392 0.755-1.496 1.346-1.745 2.713-2.66 0.891 1.99 1.59 6.074 1.111 8.195z" fill="#2f0829"/>
  <path d="m81.15 683.99c-4.279-4.484-9.228-9.079-11.38-15.04-6.044-16.743-5.824-44.832-2.49-62.47 0.504-2.663 0.823-5.948 1.987-8.382 0.986 0.526 1.372 2.069 1.843 3.086 0.624 6.959 2.523 13.828 3.512 20.761 0.913 6.403 7.189 60.07 6.528 62.045z" fill="#47bd4d"/>
  <path d="m464.15 66.868c7.994-0.127 13.014 2.759 22.483 0.566 13.821 11.634 24.548 25.427 33.544 41.035-5.307 1.617-11.459 1.214-16.971 1.188-4.199-5.379-7.729-11.209-12.093-16.507-8.049-9.774-17.466-17.978-26.963-26.282z" fill="#bec5df"/>
  <path d="m140.78 538.43c1.081 0.434 1.687 0.914 2.53 1.713 0.724 1.723 0.373 3.043 0.06 4.84-1.519-0.452-1.838-0.551-2.93-1.677-0.494-1.72-0.033-3.184 0.34-4.876z" fill="#2f0829"/>
  <path d="m123.2 545.33c1.862-0.919 3.438-1.927 5.575-1.319 1.003 0.285 0.884 0.455 1.382 1.265-0.212 1.482-1.007 2.57-2.158 3.504-0.114 0.092-0.24 0.168-0.361 0.253-1.576-1.115-2.991-2.429-4.438-3.703z" fill="#010001"/>
  <path d="m71.11 601.19c14.476 22.722 19.599 47.327 22.389 73.723 0.549 5.201 1.9 11.929 0.834 17.014-0.26 1.24-0.63 1.892-1.574 2.774-1.546 0.224-2.326 3e-3 -3.567-0.984-2.838-2.255-6.076-6.663-8.042-9.721 0.661-1.975-5.615-55.642-6.528-62.045-0.989-6.933-2.888-13.802-3.512-20.761z" fill="#1a6232"/>
  <path d="m369.31 475.2c2.991-12.478 9.639-23.582 19.632-31.736 11.715-9.559 27.865-14.086 42.855-12.405 17.469 1.958 31.699 12.322 42.351 25.858 2.595 3.299 10.423 12.534 9.939 16.604-1.345 0.451-2.081 0.014-3.416-0.337-9.307-14.759-27.448-30.4-44.606-34.409-12.512-2.924-26.559-0.333-37.366 6.555-7.142 4.553-12.994 11.24-17.385 18.43-2.139 3.502-7.67 17.967-9.823 19.301q-0.231-1.755-0.439-3.512c-0.668-1.405-1.184-2.896-1.742-4.349z" fill="#87f6fb"/>
  <g fill="#2f0829">
    <path d="m102.35 466.86c2.063-0.767 3.657-1.106 5.758-0.227 3.277 1.371 5.501 5.33 7.009 8.345 0.068 2.6-0.283 5.169-2.23 7.085-1.316 1.296-3.158 1.937-4.993 1.864-2.551-0.102-5.052-1.543-6.689-3.46-1.022-1.196-1.353-2.671-1.774-4.146 0.262-3.953 0.491-6.163 2.919-9.461z"/>
    <path d="m148.64 478.37c-1.032 0.469-2.516 0.89-3.663 0.839-1.446-0.065-2.445-0.581-3.396-1.659-1.37-1.552-1.629-4.218-1.542-6.183 0.108-2.43 0.863-5.956 2.891-7.562 1.016-0.804 1.941-1.183 3.249-0.877 2.128 0.499 3.595 2.329 4.865 3.966 0.266 4.369-0.077 7.644-2.404 11.476z"/>
    <path d="m119.46 473.33c-0.69-3.292-1.152-7.059 0.916-9.999 0.956-1.361 2.417-2.194 4.07-2.354 2.288-0.222 4.648 0.677 6.359 2.177 1.729 1.515 2.876 3.686 2.914 6.008 0.042 2.512-1.376 5.239-3.234 6.887-1.905 1.69-4.061 1.616-6.465 1.516-1.798-1.291-3.192-2.491-4.56-4.235z"/>
  </g>
  <path d="m637.62 583.12c0.582 5.124-1.005 11.61-1.876 16.72-4.31 25.263-10.839 49.607-18.4 74.053-1.441 4.66-2.651 11.611-5.476 15.428-0.35 0.472-0.447 0.501-0.883 0.831q-0.824-3-1.484-6.04c-5.469-25.706 4.839-49.08 14.465-72.201 4.086-9.817 7.894-19.804 13.654-28.791z" fill="#47bd4d"/>
  <path d="m635.45 455.64c8.222-1.911 16.232-2.14 24.605-1.055 3.268 0.423 6.893 1.361 10.17 1.346 8.783 4.06 14.134 10.158 17.464 19.148 0.949 2.562 1.505 5.232 2.061 7.902-5.12-8.043-11.91-13.367-21.33-15.487-10.252-2.307-20.737 1.294-29.347 6.828-15.231 9.789-23.33 26.863-38.125 36.321 1.452-5.164 6.698-8.957 8.265-14.206 0.47-1.574 0.198-2.705-0.557-4.099 3.006-2.768 4.273-4.298 4.85-8.4l0.503 1.29c4.699-6.721 10.692-11.808 16.724-17.292-1.434-1.346-2.749-3.007-2.777-5.081-0.037-2.805 1.593-4.536 3.504-6.34z" fill-opacity=".22853"/>
  <g fill="#2f0829">
    <path d="m631.46 456.51 3.99-0.875c2.249 0.561 4.353 0.97 5.715 3.022 0.841 1.268 1.033 2.792 0.569 4.235-0.698 2.174-2.684 3.763-4.715 4.634-2.228 0.954-3.958 0.937-6.286 0.405-1.434-1.346-2.749-3.007-2.777-5.081-0.037-2.805 1.593-4.536 3.504-6.34z"/>
    <path d="m28.732 427.03c1.379 0.311 2.452 0.501 3.28 1.802 0.935 1.471 0.716 3.598 0.225 5.192-0.066 0.214-0.156 0.42-0.234 0.63-1.262-0.269-2.509-0.559-3.261-1.722-1.107-1.715-0.393-4.072-0.01-5.902z"/>
    <path d="m71.071 477.41c0-2.181-0.072-4.586 0.59-6.686 0.63-2.002 2.05-4.2 4.087-4.983 1.286-0.494 2.631-0.287 3.844 0.291 2.724 1.299 3.912 3.793 4.966 6.457 0.353 2.718 0.815 5.585-0.785 8.019-1.175 1.788-3.615 2.543-5.624 2.747-1.109 0.113-2.231 0.122-3.345 0.129-1.864-1.868-2.744-3.519-3.733-5.974z"/>
  </g>
  <path d="m441.41 585.9q-3.009-0.948-5.87-2.276-2.862-1.329-5.528-3.015c-11.507-7.219-20.235-19.181-23.13-32.501q-0.272-1.312-0.481-2.635-0.208-1.323-0.352-2.655t-0.224-2.669q-0.079-1.337-0.093-2.676-0.015-1.34 0.036-2.679 0.051-1.338 0.167-2.673 0.115-1.334 0.295-2.662 0.181-1.327 0.425-2.644t0.552-2.621q0.308-1.303 0.679-2.591 0.371-1.287 0.804-2.554 0.433-1.268 0.927-2.513t1.047-2.465q0.554-1.22 1.166-2.411 0.613-1.192 1.282-2.352 0.669-1.161 1.394-2.287c7.977-12.213 19.587-20.543 33.917-23.454 40.988-8.325 66.451 19.322 97.314 39.805-8.552 0.167-22.91-8.645-29.773-13.323-18.619-14.33-38.311-24.827-62.516-21.732-12.565 1.607-23.593 7.176-31.385 17.293-8.038 10.438-12.245 24.459-10.405 37.586 1.983 14.148 10.142 27.848 21.658 36.31 1.771 1.301 7.732 4.407 8.492 6.064z" fill="#faf9fb"/>
  <path d="m462.55 31.956c16.755 6.519 33.318 18.07 46.827 29.917-5.203 0.781-10.536 2.605-15.712 3.022-6.546-5.231-24.748-20.448-32.927-20.716-1.323 0.599-1.295 0.569-1.905 1.887 0.319 1.87 0.768 2.557 2.307 3.688 8.455 6.21 17.546 10.508 25.499 17.68-9.469 2.193-14.489-0.693-22.483-0.566-4.705-2.109-9.342-6.722-13.748-9.519-7.795-4.947-16.24-9.12-24.396-13.451 11.728-5.437 24.077-8.698 36.538-11.942z" fill="#faf9fb"/>
  <path d="m705.52 651.46c4.038-2.902 9.995-4.679 14.604-6.656-8.849 13.752-34.882 63.984-50.268 67.057-4.629 0.925-16.808-3.516-21.58-5.394 0.918-1.359 1.926-3.369 3.172-4.395 0.379 0.161 0.876 0.19 1.284 0.259 3.457-2.033 14.836-15.814 18.891-19.764 4.224-4.113 8.875-7.818 13.274-11.744 4.458-3.978 8.694-8.202 13.091-12.247 2.243-2.063 6.031-4.556 7.532-7.116z" fill="#254436"/>
  <path d="m445.29 563c-2.881-4.935-4.408-10.161-2.932-15.835 1.352-5.193 5.089-9.962 9.706-12.675 5.233-3.075 11.947-2.254 17.528-0.616 15.575 4.57 27.041 16.912 39.556 26.543 5.859 4.508 12.309 8.365 18.637 12.175 0.015 8.136 0.521 16.59-0.047 24.688-4.211-3.582-8.132-7.459-12.526-10.837-7.814-6.006-16.508-10.943-24.977-15.942-1.811-9.498-4.909-18.001-13.328-23.656-5.121-3.44-11.927-5.405-18.063-4.119-4.595 0.964-8.839 3.826-11.295 7.851-2.481 4.066-2.438 7.83-2.259 12.423z" fill="#135370"/>
  <path d="m586.44 501.52c0.18 7e-3 0.361 4e-3 0.54 0.023 1.607 0.165 2.705 0.662 3.715 1.917 0.162 1.196 0.26 1.681-0.259 2.823-1.445 3.18-4.475 4.862-7.549 6.097-1.709-0.081-2.544-0.352-3.84-1.486-0.283-1.125-0.437-1.542 0-2.675 1.209-3.132 4.52-5.297 7.392-6.699z" fill="#2f0829"/>
  <path d="m608.65 492.33c-1.287 0.398-2.359 0.659-3.717 0.572-1.53-0.098-3.036-0.512-3.972-1.835-0.815-1.152-0.852-2.659-0.61-3.999 0.456-2.519 2.096-4.878 4.206-6.299 1.485-1 3.115-1.274 4.84-0.789 1.996 0.562 3.206 2.209 4.103 3.95-0.577 4.102-1.844 5.632-4.85 8.4z" fill="#2f0829"/>
  <path d="m637.62 583.12c1.338-3.429 3.241-6.593 4.609-10.01 2.793 20.585 7.376 46.636 2.641 67.103-2.184 9.437-6.319 18.698-10.378 27.472-4.801 10.376-10.296 20.455-14.814 30.952l-6.947-2.409c-0.679-1.937-1.625-4.017-1.746-6.076 0.436-0.33 0.533-0.359 0.883-0.831 2.825-3.817 4.035-10.768 5.476-15.428 7.561-24.446 14.09-48.79 18.4-74.053 0.871-5.11 2.458-11.596 1.876-16.72z" fill="#254436"/>
  <path d="m33.491 441.78c1.958 0.216 3.158 0.452 4.445 2.043 0.488 0.604 0.925 1.241 1.378 1.87l0.576 0.787c-0.213 1.6-0.547 3.215-1.443 4.592-0.781 1.2-1.997 2.156-3.456 2.319-1.633 0.182-3.089-0.583-4.164-1.756-0.918-1.003-1.373-2.551-1.262-3.884 0.219-2.636 1.969-4.412 3.926-5.971z" fill="#2f0829"/>
  <path d="m48.498 457.35c2.21-0.791 4.377-1.223 6.612-0.213 2.435 1.101 3.859 3.374 4.946 5.697-0.23 1.304-0.558 2.7-1.062 3.925q-0.143 0.351-0.319 0.686t-0.384 0.651q-0.209 0.316-0.447 0.61t-0.504 0.563q-0.266 0.27-0.557 0.511-0.291 0.242-0.605 0.454-0.313 0.212-0.646 0.393-0.333 0.18-0.682 0.327c-1.863 0.763-3.835 0.675-5.633-0.232-1.697-0.857-2.867-2.472-3.311-4.303-0.81-3.34 0.843-6.344 2.592-9.069z" fill="#2f0829"/>
  <path d="m159.52 631.93c0.746-11.871 4.547-23.35 12.342-32.433 4.09-4.766 8.637-9.203 12.254-14.352 3.427-4.879 5.217-10.851 8.462-15.897 11.673-18.156 33.505-25.971 54.458-23.671 9.291 1.02 18.824 4.108 28.171 1.966 13.009-2.982 22.419-13.982 27.476-25.815 3.535-8.27 5.839-17.016 10.795-24.624q0.601-0.925 1.246-1.819 0.646-0.894 1.335-1.755 0.688-0.861 1.419-1.687 0.73-0.826 1.501-1.615 0.77-0.79 1.578-1.54 0.809-0.75 1.653-1.459 0.844-0.71 1.723-1.376 0.878-0.667 1.788-1.29t1.85-1.2q0.939-0.577 1.906-1.107 0.968-0.53 1.959-1.012 0.992-0.481 2.007-0.914 1.015-0.432 2.049-0.813 1.035-0.382 2.087-0.712t2.119-0.608 2.147-0.503c4.876-1.016 16.175-1.128 20.027 2.172 1.362 1.168 1.104 2.308 1.2 3.934-0.168-0.014-0.335-0.022-0.502-0.041-12.905-1.423-22.95-1.943-33.845 6.579-18.96 14.83-17.225 41.791-40.026 57.012-13.865 9.256-26.331 5.437-41.734 4.565-16.022-0.907-33.33 4.038-44.428 16.045-6.195 6.701-8.389 15.606-13.53 22.91-5.667 8.05-13.742 13.665-18.478 22.524-4.146 7.755-4.708 16.332-8.033 23.123z" fill="#87f6fb"/>
  <path d="m357.91 13.337q7.634-0.413 15.279-0.315t15.266 0.706q7.621 0.609 15.185 1.726 7.563 1.117 15.035 2.737c-4.819 1.069-25.587 2.538-27.723 3.857-1.181 0.73-1.278 0.908-1.564 2.17 4.064 8.569 33.471-2.604 41.414-2.429 6.944 0.153 14.206 3.539 20.662 5.877-11.596 2.943-22.427 6.748-32.663 13.017-11.111-4.041-22.042-7.677-33.485-10.674-32.845-7.203-69.875-5.174-102.28 3.706-7.521 2.061-14.742 5.061-22.149 7.483 5.344-3.409 11.236-6.133 16.988-8.783 25.537-11.766 52.032-17.457 80.039-19.078z" fill="#faf9fb"/>
  <path d="m468.23 440.59c9.565-5.248 19.203-9.981 30.412-6.688 8.779 2.579 15.425 9.757 19.532 17.675 3.35 6.461 5.827 19.075 9.096 23.656l0.097 0.735c1.764 12.697 12.192 19.689 21.694 26.864l-6.289 2.818c-8.385-4.027-14.98-10.121-22.681-15.177-7.665-5.032-16.01-8.706-24.312-12.533-8.33-13.855-15.188-26.454-27.549-37.35z" fill="#148ca1"/>
  <g fill="#2f0829">
    <path d="m420.09 522.07c0.598 0.098 1.196 0.198 1.787 0.334 1.485 0.341 2.809 1.305 3.497 2.697 0.573 1.157 0.685 2.266 0.226 3.49-0.615 1.64-1.825 2.266-3.281 3.069-1.045 0.02-2.028-0.099-3.065-0.221-0.875-0.561-1.532-0.963-2.103-1.875-0.747-1.195-0.826-2.284-0.547-3.636 0.412-2.003 1.837-2.941 3.486-3.858z"/>
    <path d="m419.54 541.58c1.684-5e-3 3.547-0.082 4.863 1.174 0.786 0.752 1.201 1.838 1.174 2.918-0.062 2.526-1.601 4.507-3.281 6.23-0.282 0.015-0.564 0.037-0.846 0.044-1.405 0.034-2.615-0.611-3.493-1.712-1.073-1.347-1.311-3.055-1.076-4.716 0.275-1.933 1.23-2.8 2.659-3.938z"/>
    <path d="m473.08 498.13c0.552-0.056 1.105-0.099 1.659-0.117 2.968-0.097 5.573 0.973 7.64 3.137 1.184 1.24 1.854 2.85 1.782 4.573-0.092 2.214-1.18 3.474-2.716 4.94-0.587 0.131-1.175 0.259-1.771 0.345q-0.425 0.062-0.854 0.081t-0.858-5e-3 -0.854-0.091q-0.424-0.067-0.84-0.175-0.415-0.109-0.818-0.259t-0.788-0.339q-0.386-0.189-0.751-0.416t-0.705-0.489c-1.447-1.13-2.486-2.761-2.651-4.614-0.24-2.678 0.808-4.626 2.525-6.571z"/>
    <path d="m444.5 497.7c1.465-0.033 3.187 0.106 4.533 0.738q0.299 0.142 0.581 0.314 0.283 0.171 0.546 0.372 0.263 0.2 0.504 0.426 0.242 0.226 0.458 0.476 0.217 0.25 0.406 0.52 0.19 0.271 0.351 0.56 0.16 0.289 0.29 0.593t0.228 0.62c0.554 1.785 0.211 3.714-0.733 5.306-1.372 2.312-3.238 2.885-5.727 3.504-1.391-0.135-3.023-0.34-4.28-0.973-1.641-0.826-3.174-2.479-3.615-4.295-0.385-1.585-0.174-3.181 0.665-4.584 1.324-2.214 3.44-2.909 5.793-3.577z"/>
    <path d="m500.89 522.77c-0.441-0.34-0.888-0.674-1.307-1.041-1.53-1.341-2.703-3.154-2.791-5.235q-0.015-0.306 0-0.613 0.017-0.306 0.066-0.609 0.048-0.303 0.127-0.599 0.08-0.296 0.189-0.583 0.109-0.286 0.247-0.56t0.304-0.532q0.166-0.259 0.357-0.498 0.191-0.24 0.406-0.459c1.395-1.449 3.438-2.194 5.433-2.162 2.947 0.049 4.866 1.526 6.874 3.505 0.815 2.303 1.168 4.191 0.033 6.47-0.873 1.753-2.557 2.87-4.406 3.399-1.907 0.546-3.698 0.128-5.534-0.483z"/>
  </g>
  <path d="m534.68 575.47c2.301 0.873 4.817 1.462 7.184 2.164-0.108 9.442-1.256 32.621 4.608 39.657 1.252 1.503 3.009 2.49 4.981 2.579q0.458 0.019 0.916-0.01t0.91-0.106 0.894-0.2q0.441-0.123 0.868-0.292t0.833-0.381q0.407-0.212 0.789-0.466 0.382-0.253 0.736-0.545t0.675-0.619c6.453-6.552 4.231-27.413 4.156-36.359q7.854-0.137 15.633-1.227c0.698 19.184 0.324 38.472 0.305 57.672-0.01 9.231-0.903 19.546 0.629 28.627 0.465 2.757 1.244 4.334 3.132 6.383 3.868 2.44 8.794 2.731 13.128 3.975 2.285 0.655 4.498 1.771 6.65 2.774 0.479 4.107 1.172 8.197 1.713 12.299-16.494-3.36-33.186-5.362-49.725-8.439-0.064-0.165-0.131-0.328-0.192-0.494-0.102-0.277-0.196-0.556-0.295-0.833-2.724-7.57-2.103-15.875-6.254-23.015-2.928-5.036-7.215-7.96-12.726-9.535-0.256-24.553 0.56-49.065 0.452-73.609z" fill="#1b3657"/>
  <path d="m545.73 523.38c15.428 6.816 31.923 12.716 48.622 6.296 21.259-8.174 30.507-31.789 47.784-45.117-18.022 24.495-14.617 48.498-41.638 70.094-7.574 6.054-16.39 10.368-26.031 11.804-19.561 2.914-37.736-4.439-53.18-15.976-5.35-3.997-10.412-8.394-15.61-12.586-2.558-2.064-5.727-4.097-7.979-6.418 0.286-0.637 0.294-1.101 0.349-1.808 0.07-0.884 0.107-1.768 0.215-2.65 0.257-2.08 1.031-2.98 2.625-4.244 1.836 0.611 3.627 1.029 5.534 0.483 1.849-0.529 3.533-1.646 4.406-3.399 1.135-2.279 0.782-4.167-0.033-6.47l0.197-1.103c1.338-1.291 3.231-1.684 4.966-2.229 6.863 4.678 21.221 13.49 29.773 13.323z" fill-opacity=".22853"/>
  <g fill="#2f0829">
    <path d="m616.85 520.08c0.989 5e-3 1.985 0.077 2.974 0.12 1.114 0.779 1.092 0.746 1.424 2.064-1.064 5.19-6.168 10.19-9.617 14.064-0.312 0.123-0.614 0.272-0.935 0.369-1.089 0.327-1.843 0.315-2.845-0.182-0.382-1.123-0.373-1.406-0.174-2.6 0.935-5.604 4.672-10.556 9.173-13.835z"/>
    <path d="m551.57 544.19c3.067-0.182 5.956-0.472 8.378 1.778 0.902 0.838 1.508 1.95 1.4 3.212-0.22 2.59-2.321 4.354-4.255 5.794-1.035 0.381-2.247 0.684-3.361 0.625-1.594-0.084-3.289-0.909-4.311-2.135-1.04-1.248-1.433-2.821-1.234-4.419 0.288-2.303 1.662-3.471 3.383-4.855z"/>
    <path d="m588.46 546.12c0.467-0.015 0.815-0.05 1.29 0.061 1.097 0.257 2.593 1.318 3.074 2.399s0.393 1.802-0.11 2.849c-1.75 3.645-8.615 5.77-12.311 6.811-0.531 0.043-1.392 0.183-1.941 0.089-1.306-0.222-1.565-0.67-2.387-1.619-0.201-0.781-0.388-1.427-0.126-2.231 1.324-4.066 8.54-6.03 11.998-8.054z"/>
    <path d="m522.52 528.23c1.268-0.162 2.611-0.378 3.89-0.267 2.486 0.215 5.422 1.718 6.99 3.665 1.073 1.333 1.453 2.751 1.233 4.461-0.278 2.162-2.05 3.618-3.631 4.888-1.067 0.24-2.186 0.506-3.284 0.527-2.295 0.043-4.843-1.156-6.475-2.724-1.351-1.298-2.181-3.029-2.086-4.923 0.133-2.664 1.446-3.946 3.363-5.627z"/>
  </g>
  <path d="m378.35 655.53c4.357-1.403 8.984-4.564 13.121-6.672q8.391-4.193 17.097-7.683c17.672-7.278 32.905-9.652 50.954-14.431 10.299-2.727 27.846-9.293 38.116-9.364 2.056-0.014 4.984 0.313 6.389 2.053 5.778 7.156-9.902 20.138-10.679 27.1l0.7 0.463c10.502-1.391 24.877-13.376 33.376-19.86-0.128 7.099-0.534 14.425 0.025 21.5-9.748 3.528-26.806 16.449-31.24 25.806q-1.008 2.165-1.97 4.351c-11.714-1.483-23.265-3.16-35.097-3.25 2.247-7.257 5.761-12.81 10.524-18.714 1.644-2.039 16.332-16.624 16.465-17.14 0.15-0.576-0.171-1.598-0.446-2.112-0.665-1.238-1.776-2.574-3.234-2.823-2.382-0.408-5.592 1.297-7.771 2.161-10.941 4.336-19.97 9.146-28.741 17.124-6.222 5.66-11.108 11.561-14.717 19.191-19.2-1.504-41.56-3.982-60.708-2.803 1.392-3.454 5.019-12.823 7.836-14.897z" fill="#135370"/>
  <g fill="#2f0829">
    <path d="m50.937 323.84c-0.294-1.664-0.498-2.656 0.215-4.274 0.925-0.843 1.419-1.381 2.8-1.287 1.186 0.082 2.585 0.922 3.272 1.881 0.755 1.054 0.635 1.695 0.543 2.898-0.842 1.512-1.784 1.964-3.293 2.638z"/>
    <path d="m62.789 327.46c0.875-1.553 1.762-3.013 3.699-3.326 1.179-0.19 2.445 0.25 3.289 1.082 1.013 0.999 1.339 2.26 1.304 3.643-0.036 1.42-1.09 2.878-1.98 3.909-1.315 0.38-2.799 0.689-4.038-0.133-1.677-1.115-1.961-3.368-2.274-5.175z"/>
    <path d="m81.962 334.17c0.849 0.077 1.654 0.161 2.477 0.393 2.003 0.567 3.987 1.676 4.879 3.658 0.567 1.26 0.551 2.705 0.116 3.998-0.91 2.706-3.201 3.991-5.607 5.197-0.935 0.032-1.91 0.126-2.802-0.22-1.913-0.742-3.687-2.713-4.331-4.643-0.551-1.651-0.543-4.014 0.462-5.506 1.252-1.857 2.764-2.293 4.806-2.877z"/>
    <path d="m92.226 349.69c1.475-0.167 3.036-0.37 4.503-0.024 1.796 0.424 3.572 1.672 4.493 3.281 0.984 1.719 1.01 3.745 0.41 5.601-0.964 2.982-3.173 4.493-5.791 5.946-1.339 0.229-2.692 0.446-4.045 0.195-1.861-0.346-3.635-1.59-4.623-3.197-1.163-1.891-1.311-4.182-0.648-6.277 0.937-2.964 3.082-4.172 5.701-5.525z"/>
    <path d="m136.53 407.79c2.881 0.447 4.705 0.875 6.515 3.281 1.525 2.027 1.645 4.765 1.118 7.174-0.271 1.235-0.901 2.361-1.501 3.461-0.923 0.808-2.007 1.573-3.1 2.131-1.8 0.92-3.839 1.181-5.748 0.446-1.899-0.732-3.252-2.271-4.012-4.134q-0.181-0.452-0.314-0.92t-0.217-0.947q-0.084-0.48-0.118-0.965-0.034-0.486-0.018-0.972t0.083-0.968q0.066-0.483 0.182-0.955 0.116-0.473 0.28-0.931t0.374-0.897c1.371-2.889 3.591-3.828 6.476-4.804z"/>
    <path d="m104.34 368.2c1.358-0.112 2.79-0.252 4.15-0.117 1.878 0.186 4.021 1.277 5.184 2.778 1.072 1.384 1.344 3.081 1.049 4.778-0.596 3.417-3.176 5.343-5.839 7.234-1.743 0.428-3.416 0.9-5.225 0.591-1.818-0.31-3.515-1.234-4.521-2.814-1.104-1.734-1.187-3.79-0.715-5.746 0.832-3.446 3.001-4.997 5.917-6.704z"/>
    <path d="m130 396.04q-0.175 1.467-0.651 2.865-0.477 1.398-1.234 2.666c-1.091 1.815-2.516 3.346-4.657 3.813-2.143 0.467-4.417-0.079-6.234-1.269-1.954-1.28-3.227-3.329-3.688-5.601-0.507-2.494-0.107-5.315 1.463-7.371 2.133-2.791 6.296-4.394 9.65-4.836 3.228 3.174 4.439 5.241 5.351 9.733z"/>
  </g>
  <path d="m147.79 333.83c0.958 4.54 0.374 10.339 0.503 15.05l1.037 38.13c-1.833-1.931-3.746-3.803-5.266-5.997-3.021-3.529-5.929-7.081-8.727-10.791l0.447-0.772c0.86-1.467 0.914-2.399 0.933-4.042 2.779-0.335 3.745-1.028 5.476-3.193-0.232-1.297-0.452-2.436-1.214-3.541-0.984-1.424-2.255-1.923-3.874-2.297l-1.263 0.491c-0.025-0.188-0.053-0.375-0.074-0.563-0.035-0.313-0.061-0.626-0.093-0.938-0.378-3.661 0.179-7.443 0.508-11.1l-0.018-1.659c0.886-1.481 1.426-1.616 2.92-2.403 1.527 0.056 3.102-3e-3 4.572 0.452 0.837-0.455 1.865-0.909 2.605-1.5 1.516-1.211 1.407-3.549 1.528-5.327z" fill-opacity=".24764"/>
  <path d="m154.11 558.24c-11.168 3.715-19.773-1.212-30.659-1.37-4.398-0.064-8.89 1.048-12.051 4.27-2.466 2.513-3.532 5.678-3.351 9.176 0.249 4.816 2.488 8.523 5.982 11.705 0.672 0.613 0.448 0.216 0.649 1.111-1.118-0.045-2.117-0.314-3.143-0.753-4.33-1.853-8.395-8.79-9.976-13.03-2.271-6.087-2.637-13.679 0.304-19.577 3.354-6.729 10.273-8.004 16.755-10.281 0.875 2.744 2.037 4.373 4.18 6.264 1.447 1.274 2.862 2.588 4.438 3.703 3.822 3.723 10.915 5.939 16.112 5.924 2.864-8e-3 7.666-1.566 10.151-0.64q0.323 1.746 0.609 3.498z" fill="#fff" fill-opacity=".20707"/>
  <path d="m147.31 298.45v10.509c0.058 2.815 0.908 13.566-0.185 15.474 0.891 1.99 1.59 6.074 1.111 8.195l-0.793 0.857-0.061 0.77c-0.121 1.778-0.012 4.116-1.528 5.327-0.74 0.591-1.768 1.045-2.605 1.5-1.47-0.455-3.045-0.396-4.572-0.452-1.494 0.787-2.034 0.922-2.92 2.403l0.018 1.659c-0.329 3.657-0.886 7.439-0.508 11.1 0.032 0.312 0.058 0.625 0.093 0.938 0.021 0.188 0.049 0.375 0.074 0.563l1.263-0.491c1.619 0.374 2.89 0.873 3.874 2.297 0.762 1.105 0.982 2.244 1.214 3.541-1.731 2.165-2.697 2.858-5.476 3.193-0.019 1.643-0.073 2.575-0.933 4.042l-0.447 0.772c-2.975-4.102-5.446-8.472-7.794-12.954 0.673-20.284 8.856-42.624 20.175-59.243z" fill="#fff" fill-opacity=".20707"/>
  <path d="m90.014 460.68c6.891-5e-3 13.382-0.551 20.12-2.118 4.73-1.1 10.554-3.517 15.362-3.485 5.031 0.033 10.794 2.463 15.643 3.741 3.464 0.912 7.032 1.514 10.564 2.098l0.056 5.753c0.238 3.234 1.573 11.19-0.049 13.828l-1.389 0.546c-4.898 2.075-9.968 4.555-15.034 6.147-3.671-3.166-8.499-5.513-11.261-9.615-1.798-1.291-3.192-2.491-4.56-4.235-1.615-0.076-2.359 0.02-3.83 0.687l-0.519 0.954c-1.508-3.015-3.732-6.974-7.009-8.345-2.101-0.879-3.695-0.54-5.758 0.227-0.145-1.215-0.338-2.06-0.871-3.163-3.309-2.913-6.598-1.837-10.54-2.783-0.309-0.075-0.617-0.158-0.925-0.237z" fill-opacity=".24764"/>
  <path d="m35.913 407.1c-1.7 10.61 0.402 20.8 6.785 29.526 9.906 13.543 24.766 20.935 41.095 23.322 2.067 0.302 4.131 0.604 6.217 0.725 0.308 0.079 0.616 0.162 0.925 0.237 3.942 0.946 7.231-0.13 10.54 2.783 0.533 1.103 0.726 1.948 0.871 3.163-2.428 3.298-2.657 5.508-2.919 9.461-1.0856-1.5952-4.7987-2.33-8.3834-2.8415-2.5635-0.36574-5.0613-0.61726-6.4856-0.98751 0.353 2.718 0.815 5.585-0.785 8.019-1.175 1.788-3.615 2.543-5.624 2.747-1.109 0.113-2.231 0.122-3.345 0.129-1.864-1.868-2.744-3.519-3.733-5.974-1.537-5.745-6.94-10.489-11.015-14.578-1.087-2.323-2.511-4.596-4.946-5.697-2.235-1.01-4.402-0.578-6.612 0.213-1.73-2.497-5.875-9.911-8.608-10.87l-0.576-0.787c-0.453-0.629-0.89-1.266-1.378-1.87-1.287-1.591-2.487-1.827-4.445-2.043-0.835-2.168-0.938-4.839-1.488-7.129-1.262-0.269-2.509-0.559-3.261-1.722-1.107-1.715-0.393-4.072-0.01-5.902 0.561-6.487 2.604-15.068 7.181-19.924z" fill-opacity=".35176"/>
  <path d="m69.056 491.44c-4.107-0.425-9.291-2.667-13.067-4.34-14.483-6.417-25.897-16.185-31.567-31.271-5.042-13.414-5.212-30.137 0.832-43.283 2.06-4.478 8.186-14.625 13.199-15.714 1.091-0.237 1.408 0.099 2.134 0.758-0.456 3.042-3.854 6.792-5.073 9.937-4.577 4.856-6.62 13.437-7.181 19.924-0.383 1.83-1.097 4.187 0.01 5.902 0.752 1.163 1.999 1.453 3.261 1.722 0.55 2.29 0.653 4.961 1.488 7.129 1.958 0.216 3.158 0.452 4.445 2.043 0.488 0.604 0.925 1.241 1.378 1.87l0.576 0.787c2.733 0.959 6.878 8.373 8.608 10.87 2.21-0.791 4.377-1.223 6.612-0.213 2.435 1.101 3.859 3.374 4.946 5.697 4.075 4.089 9.478 8.833 11.015 14.578 0.989 2.455 1.869 4.106 3.733 5.974 1.128 0.986 1.874 1.203 3.379 1.072 0.629-0.055 1.259-0.148 1.884-0.237 1.541 1.579 1.883 4.903 1.633 7.041-0.086 0.74-0.177 0.874-0.421 1.477-2.173 0.88-8.306-2.214-11.824-1.723z" fill="#fff" fill-opacity=".20707"/>
  <path d="m46.313 328.34c3.841-0.827 10.119 0.818 14.691 0.247l0.141-0.575c-3.579-1.296-7.702-1.051-10.898-3.238l0.291-0.509 3.537 1.856c2.346 0.087 6.229-0.451 7.938 1.322 0.135 0.14 0.251 0.297 0.377 0.445 0.313 1.807 0.597 4.06 2.274 5.175 1.239 0.822 2.723 0.513 4.038 0.133 2.687 2.674 3.444 6.089 3.759 9.783v-0.127l-0.507 0.301-0.583-0.452-0.699 0.307 0.856 1.242c-0.599 0.421-0.313 0.349-0.793 0.395-6.903-8.476-13.759-13.618-24.425-16.305z" fill="#fff" fill-opacity=".20707"/>
  <path d="m127.03 383.39c3.046 2.716 5.592 6.314 8.337 9.363 4.718 5.24 9.644 9.793 15.131 14.191 0.041 13.018 0.554 25.945 0.862 38.947-2.508-0.412-5.078-0.73-7.542-1.349 0.686-7.409-0.522-15.439-1.153-22.828 0.6-1.1 1.23-2.226 1.501-3.461 0.527-2.409 0.407-5.147-1.118-7.174-1.81-2.406-3.634-2.834-6.515-3.281-0.403-3.671-3.937-9.295-6.036-12.297l-0.49 0.547c-0.912-4.492-2.123-6.559-5.351-9.733l0.324-0.081c1.462 0.208 2.581 1.467 3.674 2.39 0.623 1.614 1.104 3.267 1.757 4.872l0.59-0.028 1.432-2.055q-2.986-3.677-5.74-7.531z" fill-opacity=".24764"/>
  <path d="m486.64 67.434c-7.953-7.172-17.044-11.47-25.499-17.68-1.539-1.131-1.988-1.818-2.307-3.688 0.61-1.318 0.582-1.288 1.905-1.887 8.179 0.268 26.381 15.485 32.927 20.716 5.176-0.417 10.509-2.241 15.712-3.022 11.28 9.565 21.402 21.031 30.101 32.964 16.282 18.31 33.845 70.789 37.742 95.232 5.793 36.335 5.097 74.113 5.074 110.82-0.035 57.16-1.758 114.31-1.592 171.46-6.793 9.539-15.546 21.086-25.607 27.185-5.732-5.474-15.266-12.226-18.392-19.486-1.058-2.456-1.167-5.192-1.233-7.83-0.492-19.649 0.423-39.547 0.676-59.211q0.279-47.363 1.235-94.716 0.928-32.25 0.844-64.513c0.01-24.08 0.377-47.987-5.311-71.576-4.761-19.74-12.573-39.598-21.451-57.84-2.427-4.986-6.085-9.698-8.251-14.706 5.512 0.026 11.664 0.429 16.971-1.188-8.996-15.608-19.723-29.401-33.544-41.035z" fill="#58547a"/>
  <path d="m559.67 255.99c1.459-0.105 2.996-0.211 4.179 0.833 1.098 0.969 1.583 2.594 1.787 3.994 0.482 3.314-0.022 6.981 0.01 10.351l0.32 25.185 1.319 82.848q0.14 17.794 0.546 35.585c0.171 7.043 0.861 14.511 0.35 21.53-0.089 1.217-0.33 1.865-1.051 2.836-1.523 0.16-2.668 0.21-4.164-0.149-1.234-0.938-1.748-1.724-2.134-3.206-1.037-3.981-0.029-8.896-0.151-13.03l-0.895-41.632c-0.469-39.692-2.335-79.535-1.532-119.21 0.048-2.37 0.146-3.856 1.417-5.932z" fill="#2f0829"/>
  <path d="m486.64 67.434c-7.953-7.172-17.044-11.47-25.499-17.68-1.539-1.131-1.988-1.818-2.307-3.688 0.61-1.318 0.582-1.288 1.905-1.887 8.179 0.268 26.381 15.485 32.927 20.716 5.176-0.417 10.509-2.241 15.712-3.022 11.28 9.565 21.402 21.031 30.101 32.964-3.147 4.157-7.1 8.009-12.095 9.808 13.738 23.229 23.543 48.488 30.616 74.488 1.471 5.408 4.296 13.79 2.854 19.254-0.271 1.026-0.688 1.639-1.423 2.412-1.313 0.185-1.662 0.213-2.755-0.734-1.07-0.927-1.668-2.399-2.113-3.703-1.962-5.749-2.847-12.417-4.229-18.363-1.645-7.075-4.009-14.514-6.401-21.398-5.805-16.7-13.851-33.506-23.749-48.132-8.996-15.608-19.723-29.401-33.544-41.035z" fill="#2f0829"/>
  <path d="m509.37 61.873c11.28 9.565 21.402 21.031 30.101 32.964-3.147 4.157-7.1 8.009-12.095 9.808-9.601-14.879-20.702-27.755-33.718-39.75 5.176-0.417 10.509-2.241 15.712-3.022z" fill="#bec5df"/>
  <path d="m642.51 662.1-0.106 0.676c-2.228 13.731-6.82 21.315-4.2 35.791 0.704 3.89 1.747 7.97 3.557 11.502l0.51 0.192c26.413 9.765 52.295 9.358 65.599 38.329 1.567 3.411 2.931 6.884 3.851 10.526-18.793 3.258-38.234 4.38-57.235 5.939q-46.124 4.215-92.39 6.363-51.678 2.968-103.42 4.484c-24.225 0.778-50.797 1.697-74.936 0.74-3.932-6.506-9.756-10.976-15.971-15.136-1.448-0.295-3.069-0.84-4.447-1.387-1.628-0.646-3.471-1.707-3.963-3.532-0.495-1.842 0.636-3.781 1.695-5.196 4.927-6.584 13.647-9.892 21.548-10.845 3.858-0.917 8.673-0.813 12.684-1.302 17.168-2.089 43.091-4.45 57.958-13.201 2.984-1.756 5.222-3.925 7.601-6.389 3.389-0.034 6.949 0.129 10.292-0.463 2.978-0.527 7.275-1.894 8.859-4.753 0.724-1.305 0.864-2.354 0.512-3.802-1.119-4.604-7.204-7.46-11.018-9.411 1.83 0.024 4.275 0.307 6.048-0.173 1.322-0.359 1.856-0.886 2.574-1.994l-0.289-1.294c-4.466-5.571-24.783-13.835-32.197-16.182 15.927 0.566 31.763 3.305 47.594 4.968 30.693 3.222 61.531 6.241 92.087 10.603 5.401 0.77 10.797 1.535 16.135 2.67 6.805 1.446 13.682 3.39 20.609 3.995 8.523-11.514 15.395-28.354 20.458-41.718z" fill="#b8433a"/>
  <g fill="#2f0829">
    <path d="m664.14 737.68 0.742-0.011c4-0.039 7.743 0.541 10.734 3.477 0.498 1.309 0.49 1.199-0.079 2.481-1.222 0.974-2.314 1.448-3.777 1.98-3.283-0.194-8.903-0.502-11.062-3.316-0.513-0.668-0.299-1.028-0.237-1.805 1.045-1.431 2.124-1.995 3.679-2.806z"/>
    <path d="m441.25 744.17c0.823-8e-3 1.669-0.022 2.486 0.087 1.821 0.245 3.645 1.372 4.714 2.857 1.153 1.601 1.31 3.071 0.929 4.95-0.834 1.088-0.935 1.116-2.248 1.533-1.612-0.17-2.421-1.011-3.597-2.017-0.943 0.512-2.419 1.469-3.498 1.628-1.437 0.211-2.379-0.192-3.612-0.856-0.696-1.113-0.942-1.632-0.543-2.951 0.789-2.601 3.033-4.173 5.369-5.231z"/>
    <path d="m619.98 737.33c4.37-0.365 9.432-0.459 13.794 0.201 2.268 0.343 3.729 1.037 5.101 2.906 0.106 1.164 0.263 1.708-0.653 2.628-1.109 1.114-2.424 1.284-3.899 1.474-5.515-0.459-11.313 0.275-16.754-0.789-1.869-0.365-3.374-0.881-4.467-2.538-0.063-1.415 0.104-1.664 0.779-2.93 1.861-0.989 4.034-0.854 6.099-0.952z"/>
    <path d="m570.41 714.73c6.311-0.27 30.722-1.759 35.108 1.544 0.786 0.593 1.337 1.389 1.196 2.406-0.173 1.252-1.013 2.13-1.844 2.993-4.839 0.218-30.887 0.19-34.559-1.324-1.317-0.543-1.601-1.103-2.114-2.367 0.465-1.703 0.982-2.037 2.213-3.252z"/>
    <path d="m382.61 740.54c7.481-0.103 14.061 1.679 19.553 7.092 1.685 1.66 3.704 3.892 3.769 6.409 0.039 1.482-0.91 2.709-2.023 3.578-7.582 5.918-27.105 4.774-36.132 3.881-1.448-0.295-3.069-0.84-4.447-1.387-1.628-0.646-3.471-1.707-3.963-3.532-0.495-1.842 0.636-3.781 1.695-5.196 4.927-6.584 13.647-9.892 21.548-10.845z"/>
  </g>
  <path d="m382.67 747.29c5.183 0.292 8.615 1.636 12.536 5.121-5.147 0.147-10.274 0.603-15.404 1.017q-5.941 0.666-11.868 1.444c4.329-4.032 8.897-6.517 14.736-7.582z" fill="#7e7d91"/>
  <path d="m516.78 733.23c9.347-0.569 18.017 1.332 25.545 7.135 2.974 2.293 8.151 6.926 8.217 10.867 0.021 1.269-0.595 2.254-1.485 3.097-3.414 3.235-11.418 2.028-15.782 1.891-7.115 0.023-24.163 1.19-29.928-1.043-1.846-0.715-3.226-1.851-3.917-3.737-0.914-2.496 0.607-5.709 1.855-7.803 3.486-5.851 9.142-8.744 15.495-10.407z" fill="#2f0829"/>
  <path d="m517.74 739.71c8.323-0.47 14.174 1.654 20.527 6.896-4.546-0.06-9.123 0.343-13.661 0.609q-9.506 0.619-18.988 1.532c0.423-0.813 0.855-1.628 1.358-2.395 2.662-4.056 6.203-5.567 10.764-6.642z" fill="#7e7d91"/>
  <path d="m371.05 479.55q0.208 1.757 0.439 3.512c2.153-1.334 7.684-15.799 9.823-19.301 4.391-7.19 10.243-13.877 17.385-18.43 10.807-6.888 24.854-9.479 37.366-6.555 17.158 4.009 35.299 19.65 44.606 34.409-19.233-3.525-40.327-1.034-56.708 10.253-15.364 10.588-26.598 28.364-29.885 46.686-3.003 16.736 0.553 32.758 10.311 46.691 10.081 14.392 24.18 23.54 41.495 26.589 11.092 1.953 21.733 1.04 31.154-5.563q0.64-0.444 1.256-0.92 0.616-0.477 1.208-0.983 0.591-0.507 1.157-1.043 0.565-0.536 1.102-1.099 0.538-0.564 1.046-1.154t0.986-1.206q0.478-0.615 0.924-1.253t0.859-1.299q0.413-0.66 0.793-1.34 0.379-0.68 0.724-1.379 0.344-0.698 0.653-1.413t0.581-1.445 0.507-1.472q0.235-0.743 0.433-1.496 0.197-0.754 0.356-1.516t0.279-1.532c0.37-2.276 0.392-4.493 0.336-6.792 8.469 4.999 17.163 9.936 24.977 15.942 4.394 3.378 8.315 7.255 12.526 10.837 0.014 7.083 1.051 23.476-0.317 29.855-8.499 6.484-22.874 18.469-33.376 19.86l-0.7-0.463c0.777-6.962 16.457-19.944 10.679-27.1-1.405-1.74-4.333-2.067-6.389-2.053-10.27 0.071-27.817 6.637-38.116 9.364-18.049 4.779-33.282 7.153-50.954 14.431q-8.706 3.49-17.097 7.683c-4.137 2.108-8.764 5.269-13.121 6.672 3.707-6.296 16.622-22.066 16.358-28.402-0.406-0.578-0.466-0.963-1.216-1.124-5-1.067-20.588 9.828-24.803 13.051q-7.541 5.747-14.607 12.067l0.01-0.883c0.172-12.629 5.142-32.655 9.825-44.402 2.302-5.775 5.771-11.611 7.571-17.496 0.571-1.867 0.641-3.165-0.182-4.995-1.059-0.82-1.555-1.196-2.939-1.076-8.824 0.764-22.474 16.848-27.386 23.521-11.785 16.01-18.043 33.531-23.704 52.346-2.602-3.188-6.713-8.768-11.163-9.049-1.692-0.107-3.133 0.472-4.327 1.659-1.82 1.811-2.397 4.988-3.06 7.367-4.098-20.582-7.973-40.907-16.718-60.141-1.346-2.959-3.601-8.479-6.615-10.003-1.078-0.545-2.06-0.796-3.229-0.324-2.343 0.947-3.366 4.238-3.874 6.44-4.308 18.666-2.899 56.499 0.693 75.67-28.404-0.343-57.137 1.685-85.333 4.988-3.089-6.233-6.194-12.431-9.565-18.515 6.46-13.224 12.811-23.752 28.438-26.68 2.365-0.444 5.391-0.669 7.172-2.435 0.165-1.595-0.124-1.899-0.831-3.291l-1.537-0.453c0.15-0.027 0.301-0.052 0.45-0.081 1.864-0.37 3.208-0.966 4.201-2.665 0.46-0.786 0.296-1.35 0.281-2.224-0.928-1.631-2.113-2.454-3.894-2.944-7.435-2.045-23.268 3.622-29.687 7.603-2.914 1.807-6.178 4.17-8.297 6.871-2.045 2.606-3.872 6.327-6.511 8.284l-0.7-0.23-0.67-1.467c3.325-6.791 3.887-15.368 8.033-23.123 4.736-8.859 12.811-14.474 18.478-22.524 5.141-7.304 7.335-16.209 13.53-22.91 11.098-12.007 28.406-16.952 44.428-16.045 15.403 0.872 27.869 4.691 41.734-4.565 22.801-15.221 21.066-42.182 40.026-57.012 10.895-8.522 20.94-8.002 33.845-6.579 0.167 0.019 0.334 0.027 0.502 0.041 1.096 0.548 1.81 1.63 3.044 1.983 0.807 0.231 2.358 0.185 3.027-0.367 1.676-1.386 1.722-3.873 1.905-5.863z" fill="#148ca1"/>
  <path d="m326.38 550.23c8.293 0.148 42.887-0.801 48.168 2.019 1.189 0.635 1.578 1.168 1.961 2.418-0.619 1.252-1.405 1.757-2.515 2.521-13.114 0.713-26.809-9e-3 -39.952-0.305-2.82-0.064-8.384 0.011-10.284-2.282-0.556-0.671-0.373-0.946-0.35-1.75 0.885-1.27 1.683-1.846 2.972-2.621z" fill="#2f0829"/>
  <path d="m353.67 602.79c2.173-2.885 4.878-5.381 7.596-7.75-2.7 5.772-5.35 11.45-7.254 17.548-2.894 9.269-14.623 57.405-11.558 64.453 0.075 0.173 0.191 0.324 0.286 0.487l0.671 0.013c3.967-4.379 6.296-10.405 9.73-15.247 6.635-9.358 17.74-16.301 26.919-22.993-8.773 13.095-16.38 26.484-21.379 41.506-0.857 2.575-2.355 6.534-1.755 9.23 0.161 0.721 0.205 0.74 0.489 1.314 0.713 0.353 0.836 0.616 1.666 0.36 2.004-0.617 3.768-2.557 4.604-4.436 1.387-3.12 2.1-6.723 2.955-10.026q29.019 0.415 57.973 2.388c6.666 0.436 14.573 0.179 21.014 1.947 7.414 2.347 27.731 10.611 32.197 16.182l0.289 1.294c-0.718 1.108-1.252 1.635-2.574 1.994-1.773 0.48-4.218 0.197-6.048 0.173 3.814 1.951 9.899 4.807 11.018 9.411 0.352 1.448 0.212 2.497-0.512 3.802-1.584 2.859-5.881 4.226-8.859 4.753-3.343 0.592-6.903 0.429-10.292 0.463-2.379 2.464-4.617 4.633-7.601 6.389-14.867 8.751-40.79 11.112-57.958 13.201-4.011 0.489-8.826 0.385-12.684 1.302-7.901 0.953-16.621 4.261-21.548 10.845-1.059 1.415-2.19 3.354-1.695 5.196 0.492 1.825 2.335 2.886 3.963 3.532 1.378 0.547 2.999 1.092 4.447 1.387 6.215 4.16 12.039 8.63 15.971 15.136-12.1-0.125-24.189 0.251-36.286 0.304l-66.478-0.36q-110.01-1.891-219.66-11.046c-18.458-1.703-37.237-2.548-55.592-5.03 3.351-19.993 13.803-28.549 33.428-32.742 3.463-0.741 8.478-1.089 11.191-3.41 1.378-2.904-0.882-8.553-1.694-11.639q-3.247-8.812-6.591-17.587c0.172-0.214 0.35-0.422 0.515-0.64 1.504-2.001 0.463-5.192 0.064-7.459 1.69 1.473 3.763 2.953 5.215 4.639 3.82 3.467 15.509 16.942 19.882 17.292 0.695-0.817 0.504-0.4 0.724-1.167l-0.031-0.386-0.06-0.643c-0.671-7.986-3.352-15.693-3.903-23.652l0.505-0.253 1.387 0.823c4.331 3.728 17.823 21.233 21.728 21.561 1.481 0.125 1.878-0.221 3.062-0.991 0.659-1.316 1.35-3.302 2.768-3.92 3.266-1.422 35.495-8.501 38.063-7.666 0.065 0.278 0.125 0.556 0.196 0.833 0.466 1.811 1.552 3.336 3.253 4.181 1.113 0.553 2.431 0.718 3.596 0.214 1.179-0.509 1.51-1.485 1.958-2.591-0.202-7.13-8.757-21.125-12.13-28.054 9.267 5.88 17.775 13.112 26.73 19.478-1.931-19.698-15.841-51.775-24.874-69.432 21.152 18.453 35.35 43.013 47.22 68.105 8.285-1.889 17.041-2.38 25.491-3.175q18.891-1.853 37.829-3.141c9.694-0.618 19.496-0.813 29.15-1.859 0.437 2.078 0.827 4.606 1.813 6.499 0.615 1.181 1.349 1.484 2.532 1.931 0.771-0.179 1.096-0.153 1.713-0.728 3.3-3.077 0.431-11.976-0.156-16.115q-1.174-8.432-1.848-16.919-0.675-8.486-0.847-16.997-0.172-8.512 0.158-17.019 0.331-8.507 1.163-16.979c6.67 15.658 10.693 33.563 14.821 50.084 1.957 7.831 5.092 23.958 9.056 30.597 0.684 1.146 1.037 1.491 2.318 1.808 0.255-0.287 0.595-0.516 0.765-0.86 0.813-1.641 1.207-10.479 1.688-13.103 0.601-3.277 1.581-6.34 2.721-9.464 4.427 5.917 9.699 16.557 14.249 21.268 1.177-6.114 1.985-12.983 4.553-18.676 4.948-18.597 15.433-45.409 28.571-59.768z" fill="#f48d56"/>
  <path d="m196.64 735.09c1.717 0.115 3.612 0.495 4.772 1.896 0.833 1.006 1.08 2.062 0.769 3.346-0.333 1.372-1.759 2.109-2.865 2.792-1.625-0.066-3.701-0.45-4.719-1.895-0.757-1.074-1.057-1.979-0.735-3.291 0.346-1.415 1.638-2.143 2.778-2.848z" fill="#2f0829"/>
  <path d="m42.645 687.03c1.69 1.473 3.763 2.953 5.215 4.639l0.143 0.456c1.649 5.113 7.435 14.388 5.979 19.541l-0.606 0.759c0.03-0.142 0.062-0.283 0.089-0.426 0.728-3.853-2.517-12.532-4.704-15.822-0.584-0.877-1.305-1.611-2.011-2.383-0.16-0.176-0.311-0.361-0.469-0.538-0.095-0.107-0.194-0.211-0.291-0.316-3.253 9.793 2.182 11.34 3.234 19.692l-0.567 0.084q-3.247-8.812-6.591-17.587c0.172-0.214 0.35-0.422 0.515-0.64 1.504-2.001 0.463-5.192 0.064-7.459z" fill="#ffc286"/>
  <path d="m54.309 741.06c1.955 0.083 3.791 0.181 5.181 1.78 0.865 0.995 1.375 2.016 1.231 3.37-0.225 2.114-1.496 3.127-3.112 4.24-1.623 0.09-3.25 0.069-4.632-0.952-1.06-0.784-1.434-1.796-1.505-3.073-0.124-2.242 1.395-3.874 2.837-5.365z" fill="#2f0829"/>
  <path d="m93.237 724.09c0.809 0.011 1.648-0.012 2.45 0.107 1.193 0.178 2.137 0.953 2.796 1.936 0.726 1.083 0.976 2.327 0.693 3.603-0.452 2.04-1.58 2.951-3.253 3.975-1.983-0.148-3.723-0.285-5.175-1.838-0.905-0.969-1.295-2.084-1.088-3.404 0.355-2.255 1.816-3.223 3.577-4.379z" fill="#2f0829"/>
  <path d="m68.466 707.8-0.031-0.386-0.06-0.643c-0.671-7.986-3.352-15.693-3.903-23.652l0.505-0.253 1.387 0.823c-0.116 1.115-0.224 1.956 0.103 3.05 1.493 5.002 12.806 16.458 4.179 22.649-0.519 0.373-0.625 0.362-1.158 0.511-0.78-0.808-0.793-0.985-1.022-2.099z" fill="#fcf4df"/>
  <path d="m353.67 602.79c0.361 1.764-0.384 3.027-1.109 4.633-4.075 9.027-9.316 17.55-13.652 26.469-3.374 6.939-6.806 14.029-9.903 21.088-1.085 2.471-1.902 5.002-3.139 7.411l-0.579 0.311-0.189-0.144c4.948-18.597 15.433-45.409 28.571-59.768z" fill="#faf9fb"/>
  <g fill="#2f0829">
    <path d="m279.22 711.85c4.435-0.074 15.318-1.303 18.498 1.726 0.567 0.539 1.282 1.546 1.184 2.388-0.135 1.154-0.673 1.978-1.607 2.651-3.151 2.274-7.85 1.141-11.389 0.721-5.022-0.395-10.133-0.195-15.128-0.742-2.075-0.227-3.724-0.536-5.096-2.214-0.143-1.334-0.128-1.455 0.496-2.642 3.712-2.246 8.802-1.763 13.042-1.888z"/>
    <path d="m391.6 694.87c6.833-0.083 28.45-1.498 33.728 0.754 1.169 0.5 1.729 0.891 2.259 2.035-0.447 1.001-0.228 0.791-0.979 1.488-3.215 2.986-9.529 2.42-13.532 2.435-5.117 0.024-32.019 1.08-35.051-0.691-1.122-0.656-1.863-1.435-2.094-2.742-0.144-0.818 0.279-1.083 0.707-1.732 4.096-2.23 10.374-1.512 14.962-1.547z"/>
    <path d="m248.08 695.35c5.595-0.371 12.735-0.955 18.216 0.246 1.89 0.414 3.217 1.221 4.306 2.83l-0.214 1.048c-4.36 3.898-35.439 2.192-42.406 2.152-5.93-0.017-17.871 1.093-23.023-0.69l-0.261-0.631 0.742-0.831c8.832-3.67 32.201-3.741 42.64-4.124z"/>
    <path d="m325.67 725.27c6.355-0.603 13.152 0.93 18.384 4.668 2.493 1.781 4.994 4.324 5.437 7.495 0.22 1.579-0.136 3.126-1.156 4.385-2.966 3.664-9.633 3.876-13.976 4.313-6.862 0.166-15.791 0.801-22.135-2.074-1.601-0.725-3.193-2.021-3.596-3.823-0.44-1.963 0.673-3.963 1.787-5.487 3.896-5.33 8.79-8.399 15.255-9.477z"/>
  </g>
  <path d="m323.77 732.18c7.231-0.291 11.385 2.135 17.478 5.734-3.502 0.129-7.071-1.112-9.643-0.912-4.122 0.579-7.926 2.249-11.993 2.848-1.49 0.22-2.705 0.163-3.94-0.706l0.238-1.153c2.256-2.657 4.74-4.329 7.86-5.811z" fill="#7e7d91"/>
  <path d="m460.85 719.65q-2.393-0.065-4.783-0.189c-5.234-0.284-14.587-0.702-18.184-5.069-0.856-1.039-1.285-2.341-1.057-3.69 0.503-2.974 3.522-5.323 5.927-6.782 8.369-5.076 17.526-4.789 26.742-2.699 3.814 1.951 9.899 4.807 11.018 9.411 0.352 1.448 0.212 2.497-0.512 3.802-1.584 2.859-5.881 4.226-8.859 4.753-3.343 0.592-6.903 0.429-10.292 0.463z" fill="#2f0829"/>
  <path d="m458.11 705.82c1.005-0.112 1.999-0.124 3.009-0.092 4.277 0.135 6.444 1.762 9.3 4.806q-7.388 0.772-14.804 1.181c-3.368 0.222-8.245 1.103-11.264-0.569l0.028-0.761c3.465-2.912 9.338-4.066 13.731-4.565z" fill="#7e7d91"/>
  <path d="m156.48 721.79c7.558-0.873 15.035 1.249 21.208 5.624 3.04 2.156 8.603 6.84 8.846 10.716 0.089 1.431-0.284 2.371-1.234 3.435-3.62 4.054-12.94 3.658-18.023 3.959-8.151 0.203-19.384 0.543-26.484-4.153-1.936-1.281-3.601-3.114-4.011-5.466-0.35-2.007 0.296-3.935 1.509-5.533 4.065-5.356 11.814-7.729 18.189-8.582z" fill="#2f0829"/>
  <path d="m154.68 728.98c5.423-0.906 13.698 0.705 18.029 4.334 0.657 0.55 0.668 0.616 1.115 1.198-0.013 0.686 0.179 0.983-0.418 1.458-2.922 2.323-24.283 1.426-28.502 0.414-0.426-0.102-1.025-0.338-1.409-0.479l-0.192-0.514c3.173-3.647 6.829-5.199 11.377-6.411z" fill="#58547a"/>
  <path d="m154.68 728.98c1.589 0.061 2.768-0.14 4.128 0.72-0.227 1.691-2.011 3.447-2.962 4.859-4.172 0.289-8.366 0.69-12.543 0.832 3.173-3.647 6.829-5.199 11.377-6.411z" fill="#bec5df"/>
  <path d="m169.61 588.62c0.307-24.27-1.444-48.616-2.211-72.868l-2.947-110.18c-1.092-34.488-1.397-69.015-2.225-103.51q-0.901-28.96-0.642-57.932c0.317-42.871 3.625-77.153 23.557-116 7.182-13.998 15.704-27.074 26.522-38.561 33.775-35.861 80.132-49.814 128.27-51.174 48.856-1.381 95.024 19.218 130.13 52.532 35.378 33.574 54.491 91.144 55.728 139.16 0.945 8.185 0.482 16.76 0.451 25l-0.149 40.527q-0.301 72.208 0.655 144.41c-5.441-8.883-14.445-16.252-24.714-18.669-12.974-3.053-27.041 1.949-37.948 8.828q-2.434 1.523-4.747 3.224c-12.034-8.766-29.716-11.584-44.21-9.249-15.926 2.566-32.364 11.507-41.845 24.762-4.851 6.783-8.579 14.485-10.396 22.641-13.49-3.944-24.831-3.498-37.396 3.355-30.893 16.851-22.093 46.642-43.738 60.709-11.547 7.503-21.967 2.138-34.198 0.831-32.117-3.431-54.477 9.553-69.324 37.774-0.636 1.506-0.924 2.992-1.235 4.593-3.13 2.889-5.21 6.187-7.385 9.805z" fill="#bec5df"/>
  <path d="m460.64 271.19c1.661-0.043 3.401 0.203 4.943 0.846q0.511 0.218 0.996 0.486 0.486 0.269 0.942 0.586 0.456 0.316 0.878 0.677 0.421 0.362 0.803 0.764 0.383 0.402 0.722 0.842 0.34 0.439 0.633 0.91 0.293 0.472 0.537 0.97 0.243 0.499 0.435 1.02c1.044 2.792 0.946 5.838-0.436 8.492-1.618 3.108-4.098 4.075-7.314 4.987-2.135-0.061-4.225-0.218-6.189-1.138-2.775-1.298-5.066-3.757-5.991-6.691-0.777-2.467-0.58-5.144 0.708-7.407 1.877-3.296 4.859-4.4 8.333-5.344z" fill="#2f0829"/>
  <path d="m457.79 285.15c-1.081-1.588-2.078-3.285-1.669-5.295 0.266-1.303 0.757-2.254 1.912-2.982 1.891-1.194 3.732-0.76 5.765-0.331-1.555 3.69-2.786 6.046-6.008 8.608z" fill="#faf9fb"/>
  <path d="m463.8 276.54c1.558 1.594 2.769 2.898 2.771 5.239 1e-3 1.288-0.402 2.58-1.367 3.48-1.268 1.183-2.954 1.279-4.57 0.991-1.016-0.182-1.932-0.635-2.842-1.102 3.222-2.562 4.453-4.918 6.008-8.608z" fill="#fd9087"/>
  <path d="m213.08 264.13c2.128 0.194 4.336 0.405 6.296 1.322 2.734 1.279 4.999 3.751 5.931 6.63q0.154 0.469 0.261 0.95 0.106 0.481 0.165 0.971 0.058 0.49 0.068 0.983t-0.029 0.984q-0.039 0.492-0.126 0.977-0.087 0.486-0.222 0.96t-0.316 0.933-0.407 0.897c-1.72 3.3-4.599 4.819-7.996 5.924-2.254 0.309-4.57 0.18-6.7-0.664q-0.468-0.181-0.915-0.409t-0.868-0.501q-0.421-0.274-0.811-0.589-0.391-0.315-0.747-0.669-0.355-0.353-0.673-0.742-0.317-0.388-0.593-0.808-0.276-0.419-0.506-0.865-0.231-0.445-0.415-0.912c-1.08-2.76-0.903-5.945 0.325-8.625 1.752-3.822 4.429-5.433 8.278-6.747z" fill="#2f0829"/>
  <path d="m218.04 271.58c0.922 1.678 1.641 3.309 1.122 5.268-0.32 1.207-1.181 2.12-2.282 2.668-1.221 0.608-2.491 0.562-3.82 0.543 1.987-2.682 3.464-5.513 4.98-8.479z" fill="#dcc7d1"/>
  <path d="m213.06 280.06c-1.57-0.841-2.806-1.637-3.533-3.359-0.648-1.534-0.428-3.515 0.464-4.89 0.745-1.149 1.904-1.901 3.261-2.099 2.023-0.296 3.298 0.718 4.788 1.869-1.516 2.966-2.993 5.797-4.98 8.479z" fill="#faf9fb"/>
  <path d="m229.13 87.323c5.389-0.592 10.395-0.616 14.838 3.044 3.295 2.714 5.137 6.965 5.33 11.187 0.198 4.304-1.49 8.318-4.529 11.343-2.887 2.874-6.692 4.496-10.776 4.492-4.537-4e-3 -9.299-2.108-12.386-5.428-3.079-3.313-4.551-7.494-4.294-11.974l0.032-0.477c2.588-5.916 5.888-9.499 11.785-12.187z" fill="#2f0829"/>
  <path d="m239.88 93.902c2.26 2.603 4.003 5.197 3.625 8.805-0.274 2.61-1.736 4.77-3.849 6.271-3.1 2.2-6.303 2.418-9.959 2.011 4.509-4.719 8.377-10.802 10.183-17.087z" fill="#bec5df"/>
  <path d="m229.7 110.99c-2.573-1.55-4.636-3.368-5.506-6.348-0.759-2.596-0.401-5.269 0.89-7.629q0.243-0.448 0.53-0.869 0.288-0.421 0.617-0.81t0.696-0.742q0.367-0.354 0.769-0.667 0.402-0.314 0.833-0.585 0.432-0.271 0.889-0.496 0.458-0.225 0.936-0.402 0.477-0.177 0.971-0.304c3.253-0.83 5.772 0.137 8.558 1.765-1.806 6.285-5.674 12.368-10.183 17.087z" fill="#faf9fb"/>
  <path d="m196.15 494.75c4.643-0.424 8.958-0.284 13.049 2.279 3.801 2.381 6.398 6.345 7.382 10.691q0.185 0.794 0.29 1.603t0.129 1.624-0.034 1.629q-0.057 0.813-0.195 1.617-0.138 0.803-0.356 1.589-0.217 0.786-0.512 1.547-0.294 0.76-0.663 1.488-0.369 0.727-0.808 1.414c-2.958 4.653-7.437 7.031-12.662 8.294-4.449 0.201-8.455-0.166-12.441-2.4q-0.735-0.403-1.426-0.877t-1.331-1.015-1.223-1.143-1.102-1.26q-0.52-0.658-0.971-1.364t-0.829-1.454-0.68-1.53q-0.301-0.782-0.523-1.59c-1.148-4.312-0.29-8.806 2.044-12.568 3.048-4.914 7.439-7.231 12.862-8.574z" fill="#2f0829"/>
  <path d="m192.18 520.6c-2.288-1.425-4.068-3.074-5.197-5.57-1.089-2.407-1.049-5.006-0.034-7.436q0.221-0.519 0.493-1.013 0.272-0.495 0.591-0.96 0.319-0.466 0.682-0.897 0.363-0.432 0.768-0.825 0.404-0.394 0.845-0.746t0.915-0.658q0.473-0.307 0.975-0.565 0.501-0.258 1.026-0.466c4.261-1.668 8.339-0.744 12.436 0.926l-3.045 1.304c-3.984 1.68-7.723 4.411-9.325 8.563-1.144 2.964-1.303 5.201-1.13 8.343z" fill="#faf9fb"/>
  <path d="m205.68 502.39c2.455 1.575 4.27 3.573 4.888 6.507 0.614 2.911-0.429 6.073-2.127 8.437-1.816 2.528-4.546 4.351-7.643 4.846-2.953 0.473-5.957-0.343-8.618-1.58-0.173-3.142-0.014-5.379 1.13-8.343 1.602-4.152 5.341-6.883 9.325-8.563z" fill="#bec5df"/>
  <path d="m250.8 438.22c4.259-0.172 8.026-0.137 11.925 1.912q0.713 0.372 1.383 0.817 0.67 0.444 1.291 0.956 0.621 0.511 1.185 1.084t1.066 1.202q0.501 0.629 0.935 1.306t0.795 1.396q0.361 0.718 0.645 1.47 0.285 0.752 0.49 1.53c1.307 4.779 0.492 10.029-1.977 14.301-3.044 5.266-7.274 7.168-12.884 8.568-4.486 0.342-9.291-0.401-13.202-2.712q-0.705-0.411-1.365-0.892-0.659-0.48-1.267-1.025t-1.158-1.148-1.036-1.259q-0.486-0.655-0.904-1.356-0.417-0.702-0.762-1.441-0.345-0.74-0.613-1.511t-0.457-1.565q-0.194-0.798-0.308-1.61-0.114-0.813-0.146-1.633-0.033-0.821 0.016-1.64t0.179-1.63q0.131-0.81 0.341-1.604 0.209-0.793 0.497-1.562t0.65-1.505q0.363-0.736 0.797-1.433c3.23-5.255 8.06-7.71 13.884-9.016z" fill="#2f0829"/>
  <path d="m245.06 464.17c-2.241-1.735-4.342-3.669-5.095-6.505-0.678-2.559-0.207-5.171 1.129-7.435 1.74-2.95 4.768-5.075 8.07-5.906 4.112-1.035 7.63-0.099 11.232 1.951-4.367 0.478-8.252 1.213-11.211 4.798-2.882 3.493-3.609 8.727-4.125 13.097z" fill="#faf9fb"/>
  <path d="m260.39 446.28c2.387 1.657 4.232 4.128 4.661 7.061 0.438 2.999-0.753 6.137-2.639 8.44-2.131 2.602-5.396 4.368-8.757 4.643-2.83 0.232-6.277-0.605-8.601-2.249 0.516-4.37 1.243-9.604 4.125-13.097 2.959-3.585 6.844-4.32 11.211-4.798z" fill="#bec5df"/>
  <path d="m169.61 588.62c0.307-24.27-1.444-48.616-2.211-72.868l-2.947-110.18c-1.092-34.488-1.397-69.015-2.225-103.51q-0.901-28.96-0.642-57.932c0.317-42.871 3.625-77.153 23.557-116 7.182-13.998 15.704-27.074 26.522-38.561 33.775-35.861 80.132-49.814 128.27-51.174 48.856-1.381 95.024 19.218 130.13 52.532 35.378 33.574 54.491 91.144 55.728 139.16-1.127 10.361 1.529 31.657-0.804 40.345-2.429-3.701-3.22-22.479-3.819-28.18-5.617-53.431-18.884-112.37-60.937-149.41q-1.672-1.455-3.378-2.869-1.707-1.413-3.447-2.785-1.741-1.371-3.515-2.7-1.773-1.328-3.579-2.613t-3.642-2.525q-1.837-1.24-3.703-2.435t-3.761-2.343q-1.895-1.149-3.818-2.251-1.922-1.103-3.871-2.157-1.949-1.055-3.923-2.062t-3.972-1.965q-1.999-0.958-4.02-1.867t-4.063-1.768q-2.043-0.86-4.106-1.669t-4.145-1.567q-2.083-0.759-4.183-1.466t-4.217-1.363q-2.116-0.655-4.249-1.259-2.132-0.604-4.278-1.155-2.147-0.551-4.306-1.05-2.159-0.498-4.33-0.944t-4.352-0.838q-2.181-0.393-4.371-0.732-2.19-0.338-4.387-0.624-2.198-0.285-4.402-0.516-2.203-0.232-4.412-0.409-2.209-0.178-4.422-0.301t-4.427-0.193q-2.215-0.069-4.431-0.084t-4.432 0.024q-2.216 0.04-4.43 0.133t-4.425 0.241c-33.302 2.148-77.36 12.689-100.11 38.598-5.897 2.688-9.197 6.271-11.785 12.187-3.709 1.833-6.617 6.368-8.951 9.66-10.06 14.19-17.473 28.866-23.044 45.328-14.82 43.795-12.463 98.575-12.658 144.71-0.138 32.671-0.575 65.472 0.244 98.135 0.889 35.494 3.102 70.957 4.022 106.44 0.387 14.914-2.347 59.739 1.28 70.437-0.636 1.506-0.924 2.992-1.235 4.593-3.13 2.889-5.21 6.187-7.385 9.805z" fill="#faf9fb"/>
  <path d="m338.09 78.342q2.909-0.185 5.824-0.22 2.915-0.036 5.828 0.077 2.913 0.114 5.816 0.376 2.903 0.263 5.79 0.673 2.886 0.411 5.747 0.968 2.861 0.558 5.69 1.261 2.829 0.704 5.618 1.551 2.79 0.847 5.532 1.836c24.84 8.879 46.163 26.328 57.544 50.425q0.49 1.035 0.954 2.083 0.464 1.047 0.902 2.105 0.437 1.059 0.849 2.128 0.411 1.069 0.795 2.148 0.385 1.079 0.742 2.168 0.358 1.088 0.688 2.185 0.33 1.096 0.633 2.201t0.578 2.217 0.523 2.23q0.247 1.119 0.467 2.243 0.219 1.124 0.411 2.253 0.191 1.13 0.354 2.264 0.164 1.133 0.298 2.271 0.135 1.137 0.242 2.278 0.106 1.14 0.185 2.283 0.078 1.143 0.127 2.287 0.05 1.145 0.071 2.29t0.014 2.291q-0.01 1.145-0.044 2.29-0.036 1.145-0.1 2.289-0.065 1.143-0.158 2.285t-0.214 2.281q-0.122 1.139-0.271 2.274-0.15 1.136-0.328 2.268-0.178 1.131-0.384 2.258t-0.44 2.248q-0.235 1.121-0.496 2.236-0.262 1.115-0.552 2.224-0.29 1.108-0.607 2.208-0.317 1.101-0.662 2.194-0.344 1.092-0.716 2.176-0.372 1.083-0.77 2.157c-8.809 23.891-25.517 36.917-47.914 47.212 0.149 10.527 0.841 21.749-4.869 31.106q-0.37 0.598-0.769 1.178t-0.826 1.139-0.882 1.097q-0.454 0.537-0.934 1.052-0.48 0.514-0.984 1.005-0.505 0.49-1.033 0.955t-1.079 0.904q-0.55 0.438-1.121 0.849-0.572 0.411-1.163 0.793-0.59 0.382-1.199 0.735-0.609 0.352-1.235 0.675-0.625 0.322-1.266 0.613-0.64 0.292-1.295 0.551-0.654 0.259-1.32 0.486t-1.342 0.421q-0.677 0.194-1.362 0.354c-7.102 1.676-12.293-0.06-18.284-3.722l-4.113 1.799c-6.391 1.328-11.445 0.048-17.229-2.673q-3.481 0.93-6.984 1.771c-6.224 1.439-11.963 1.353-17.502-2.108-4.262 2.779-9.625 5.318-14.78 5.579-3.527 0.179-6.694-0.853-9.206-3.378-9.008-9.054-6.771-28.907-6.787-40.731-3.881-5.23-8.765-9.606-13.371-14.184-16.854-16.751-21.046-26.397-22.689-49.931-1.798-25.749 2.475-55.211 20.08-75.259 19.245-21.917 46.068-34.532 74.978-36.548z" fill="#2f0829"/>
  <path d="m342.45 86.036c-3.2809 0.01788-6.5687 0.13993-9.8412 0.48993-20.9 2.234-42.368 11.855-57.567 26.424-16.9 16.198-24.79 37.042-25.21 60.283-0.317 17.495 3.0291 35.45 15.667 48.429 1.757 1.806 3.5972 3.3757 5.6342 4.8567 0.95899 0.87925 2.5922 2.2374 4.5265 3.8342 5.8031 4.7904 14.309 11.691 15.39 14.027 1.284 2.773 1.4017 6.28 1.5337 9.298 0.29866 6.9607 0.53758 13.922 0.72424 20.886 0.448 3.103 0.46754 6.7216 2.9715 8.9146 3.043 1.044 5.7618-0.62531 8.5418-1.7893-0.249-6.086-0.12371-12.226-0.19171-18.319 0.037-2.513-0.23961-4.9152 1.5124-6.9442 1.142-1.322 3.6698-2.6447 5.4318-2.6307 1.348 0.01 2.2734 0.73171 3.0674 1.7467 3.313 4.234 2.3301 14.2 2.3431 19.491 0.129 1.227 0.19258 2.5307 0.50058 3.7277 0.3 1.172 1.0993 2.4588 2.2153 2.9928 2.787 1.334 6.4381-0.53899 9.053-1.555-0.04-2.42-0.1422-4.8391-0.30886-7.2531-0.27-5.731-1.5745-13.984 2.5774-18.66 1.014-1.143 2.4649-2.1222 4.0579-2.0662 1.109 0.038 2.2421 0.58133 3.0461 1.3313 2.648 2.468 3.0371 5.3188 3.2591 8.7548-0.143 4.605-1.6144 14.981 1.5976 18.447 0.96199 1.038 2.4502 1.5299 3.8342 1.6189 2.537 0.165 5.6925 0.20335 7.6685-1.5656 1.23-5.768 0.12-13.642 0-19.619 0.921-2.63 1.9236-5.1172 4.4946-6.5182 1.369-0.747 2.699-0.59543 4.175-0.38343 1.787 0.985 2.4665 2.2983 2.9715 4.2283 1.511 5.776 0.63601 12.666 0.88401 18.628 1.071-0.063 2.5031-0.0597 3.8768-0.22366 0.68688-0.082 1.3533-0.19964 1.9597-0.39408-0.60646 0.19444-1.2728 0.31208-1.9597 0.39408-1.3737 0.164-2.8058 0.16066-3.8768 0.22366 0.038 2.577-0.14201 6.1646 1.555 8.2756 0.76 0.945 1.7246 1.391 2.9396 1.31 2.122-0.142 4.1672-1.683 5.6342-3.11 8.835-8.592 6.1241-27.206 6.1561-38.555 2.405-0.703 4.8302-1.4033 7.1892-2.2473 17.514-6.265 31.117-18.389 38.917-35.339 8.828-19.182 10.153-44.941 2.8011-64.777-3.478-9.381-14.548-28.333-23.751-32.57-15.929-15.791-34.627-21.222-56.161-23.953-3.283-0.0715-6.5603-0.15633-9.8412-0.13846zm1.9278 2.3325c-0.99309 0.07623-1.9498 0.17662-2.8118 0.36212 0.862-0.1855 1.8187-0.28589 2.8118-0.36212zm-40.792 14.197c-1.7634 0.96162-3.4812 1.9642-5.1549 3.0141-1.6737 1.0499-3.3072 2.147-4.8886 3.291s-3.1145 2.3347-4.6011 3.5786c-1.4866 1.2439-2.9245 2.5378-4.3135 3.8875-1.389 1.3497-2.7265 2.7564-4.0153 4.2177s-2.5311 2.9798-3.7171 4.5585c-1.186 1.5787-2.317 3.2186-3.3976 4.9206-1.0806 1.702-2.1056 3.4623-3.078 5.2934-0.97244 1.8311-1.8968 3.7321-2.7585 5.6981-0.8617 1.966-1.6694 3.9961-2.4177 6.1028-0.74832 2.1067-1.4339 4.2862-2.0662 6.5395 0.63231-2.2533 1.3179-4.4328 2.0662-6.5395 0.74833-2.1067 1.556-4.1368 2.4177-6.1028 0.86171-1.966 1.7861-3.867 2.7585-5.6981 0.97245-1.8311 1.9975-3.5914 3.078-5.2934 1.0806-1.702 2.2116-3.3419 3.3976-4.9206 1.186-1.5787 2.4282-3.0972 3.7171-4.5585s2.6263-2.868 4.0153-4.2177c1.389-1.3497 2.827-2.6436 4.3135-3.8875 1.4866-1.2439 3.0196-2.4346 4.6011-3.5786s3.2149-2.2412 4.8886-3.291c1.6737-1.0499 3.3916-2.0525 5.1549-3.0141zm-42.422 58.568c-0.63428 2.4892-1.2199 4.9775-1.7361 7.4661 0.51619-2.4886 1.1018-4.9769 1.7361-7.4661zm9.0424 60.634c0.79476 0.93708 1.6231 1.8341 2.4816 2.6733-0.8585-0.83925-1.6868-1.7362-2.4816-2.6733zm107.18 42.23c-0.0888 1.8258-0.23904 3.5503-0.46864 5.1017 0.2296-1.5514 0.37981-3.2758 0.46864-5.1017zm-35.626 6.2413c-0.0261 1.5763-0.0753 3.1644-0.0639 4.665 0.925-0.102 1.848-0.2397 2.7692-0.39407-0.92112 0.15437-1.8442 0.29207-2.7692 0.39407-0.0115-1.5093 0.0379-3.0794 0.0639-4.665zm-13.367 3.078c-0.0335 0.29739-0.065 0.63749-0.12781 0.95856-0.0458 0.23425-0.0999 0.46225-0.19171 0.64969-0.0918 0.18743-0.21992 0.33552-0.38342 0.42602-0.3365 0.18613-0.70661 0.32715-1.1077 0.42603-0.40106 0.0989-0.82959 0.15216-1.2781 0.18106-0.44848 0.0289-0.91646 0.0345-1.3952 0.0106-0.47878-0.0238-0.96721-0.0685-1.4591-0.12781-0.98388-0.11856-1.9739-0.2905-2.9076-0.44733 0.93372 0.15683 1.9238 0.32877 2.9076 0.44733 0.49193 0.0593 0.98036 0.10399 1.4591 0.12781 0.47877 0.0238 0.94675 0.0183 1.3952-0.0106 0.44849-0.0289 0.87702-0.0822 1.2781-0.18106 0.40106-0.0989 0.77117-0.2399 1.1077-0.42603 0.1635-0.0905 0.29159-0.23859 0.38342-0.42602 0.0918-0.18744 0.1459-0.41544 0.19171-0.64969 0.0659-0.3372 0.0924-0.65105 0.12781-0.95856zm-26.648 0.67099c-0.89852 0.20226-1.8201 0.40432-2.7479 0.57513-0.92781 0.17082-1.8619 0.30649-2.7585 0.36213-0.44832 0.0278-0.88084 0.038-1.31 0.0213s-0.85428-0.0562-1.2568-0.12781c0.4025 0.0716 0.82759 0.11114 1.2568 0.12781 0.42919 0.0167 0.86171 7e-3 1.31-0.0213 0.89664-0.0556 1.8307-0.19131 2.7585-0.36213 0.95698-0.17618 1.8231-0.36689 2.7479-0.57513zm45.478 0.0426c2.367 1.039 4.7779 1.9885 7.1679 2.9715-2.39-0.983-4.8009-1.9325-7.1679-2.9715zm28.054 0.60709c-0.25775 0.42715-0.53667 0.78148-0.85205 1.0544 0.31538-0.27293 0.5943-0.62726 0.85205-1.0544z" fill="#7c34ff"/>
  <path d="m330.25 206.24c4.347-0.34 7.817-0.436 11.579 2.201 4.17 2.922 6.105 7.772 7.017 12.61 0.47 2.496 0.976 7.123-0.967 9.201-0.828 0.886-1.766 1.496-3.034 1.419-5.496-0.335-3.166-10.812-7.278-15.541-0.113-0.13-0.229-0.257-0.344-0.386-0.822-0.195-1.674-0.407-2.519-0.469-8.829-0.643-5.529 12.054-10.045 16.21-1.13 0.459-1.75 0.504-2.931 0.12-1.268-0.412-2.567-1.205-3.096-2.472-1.348-3.23 0.557-9.151 1.848-12.289 2.134-5.185 4.582-8.446 9.77-10.604z" fill="#2f0829"/>
  <path d="m376.56 168.32c-2.1736-0.0176-4.3401 0.43969-6.6886 1.5337-3.942 1.837-7.257 5.1467-8.659 9.3087-0.168 0.50667-0.31002 1.023-0.42602 1.5444-0.11534 0.52133-0.19495 1.0456-0.25562 1.5763-0.0613 0.53-0.0998 1.0636-0.10651 1.5976-7e-3 0.534 0.0152 1.0663 0.0639 1.5976 0.0487 0.532 0.121 1.0523 0.22367 1.5763 0.10266 0.524 0.23807 1.0443 0.39407 1.555 0.156 0.51 0.33518 1.0097 0.54318 1.5017 0.20734 0.492 0.43496 0.96984 0.6923 1.4378 2.353 4.331 6.599 7.0303 11.279 8.2543 0.243 0.063 0.49089 0.12106 0.73489 0.18106 2.226 0.306 4.5446 0.22387 6.7206-0.36213 4.608-1.242 8.4613-4.1377 10.693-8.3927 1.852-3.533 2.3653-7.494 1.1183-11.311-1.609-4.929-5.2106-7.9385-9.6175-10.289-2.353-0.8045-4.5363-1.2924-6.7099-1.31zm3.9444-15.521c7.209-0.688 14.78 1.705 20.476 6.091q0.636 0.49 1.246 1.01 0.611 0.521 1.195 1.071t1.14 1.129 1.083 1.184q0.526 0.605 1.023 1.236 0.496 0.631 0.96 1.285 0.464 0.655 0.895 1.332 0.431 0.676 0.828 1.374 0.397 0.697 0.759 1.413 0.363 0.716 0.689 1.449t0.615 1.482q0.289 0.748 0.541 1.51t0.466 1.535q0.214 0.774 0.389 1.557 0.176 0.783 0.312 1.574 0.136 0.79 0.233 1.587c1.081 8.769-1.485 18.185-6.923 25.154-5.161 6.615-12.268 9.954-20.416 10.94-8.262 0.108-15.256-0.624-22.127-5.763-6.968-5.21-11.342-13.614-12.388-22.173q-0.102-0.806-0.165-1.616-0.062-0.81-0.085-1.623-0.022-0.812 0-1.624 0.018-0.813 0.076-1.623 0.058-0.811 0.156-1.617 0.098-0.807 0.236-1.608 0.138-0.8 0.315-1.593 0.178-0.793 0.394-1.577 0.216-0.783 0.471-1.554 0.255-0.772 0.548-1.53t0.623-1.501q0.33-0.742 0.696-1.467 0.366-0.726 0.768-1.432t0.838-1.392 0.906-1.349q0.469-0.663 0.971-1.302c5.599-7.066 13.46-10.563 22.26-11.569z"/>
  <path d="m291.56 168.88c-2.8274-0.029-5.5752 0.55503-8.2117 2.3218-3.292 2.206-5.3855 5.7712-6.1135 9.6282-0.716 3.787-0.0802 7.7133 2.1408 10.906 2.441 3.51 5.7082 5.2712 9.5962 6.7632 1.238 0.17733 2.4784 0.23242 3.7277 0.15976 1.2487-0.072 2.4864-0.27711 3.6958-0.59644 4.51-1.191 8.6254-4.0523 10.842-8.2223 0.21933-0.40667 0.42043-0.81813 0.59643-1.2461 0.17534-0.428 0.318-0.86603 0.44733-1.31 0.13-0.444 0.23752-0.89797 0.31952-1.3526 0.082-0.45534 0.14773-0.91261 0.18106-1.3739 0.034-0.46066 0.0366-0.92192 0.0213-1.3846-0.0153-0.462-0.0538-0.92659-0.11716-1.3846-0.064-0.458-0.15493-0.90396-0.26626-1.3526-0.112-0.44867-0.24673-0.89667-0.40473-1.3313-1.746-4.744-5.2937-7.3173-9.7347-9.3193-2.2715-0.49088-4.5215-0.88274-6.7206-0.90531zm1.8958 6.3584c-0.57324 0.7485-1.1194 1.5095-1.6189 2.2899 0.49956-0.78037 1.0456-1.5414 1.6189-2.2899zm-2.3325 3.4721c-0.22877 0.40016-0.4436 0.81336-0.64969 1.2248-0.20609 0.41146-0.40405 0.82201-0.58579 1.2461 0.18175-0.42411 0.37967-0.83466 0.58579-1.2461 0.20612-0.41147 0.42089-0.82467 0.64969-1.2248zm-1.5017 3.11c-0.42229 1.0773-0.75495 2.2011-1.0012 3.3763 0.24609-1.1752 0.57886-2.2989 1.0012-3.3763zm-2.138-29.075c7.582-0.467 14.305-0.092 20.936 4.08q0.657 0.421 1.293 0.873 0.635 0.453 1.248 0.936 0.612 0.483 1.201 0.996 0.588 0.513 1.15 1.054 0.562 0.54 1.097 1.108t1.042 1.162q0.506 0.593 0.983 1.211 0.477 0.617 0.922 1.258 0.446 0.64 0.86 1.301 0.414 0.662 0.795 1.343t0.728 1.38q0.347 0.698 0.659 1.413t0.589 1.445q0.277 0.729 0.518 1.471 0.24 0.743 0.444 1.496t0.371 1.515q0.179 0.787 0.318 1.581 0.14 0.795 0.238 1.596 0.099 0.8 0.157 1.605 0.058 0.804 0.076 1.611 0.017 0.807-0.01 1.613-0.024 0.806-0.088 1.611-0.065 0.804-0.17 1.603-0.105 0.8-0.251 1.594-0.145 0.793-0.331 1.578-0.185 0.786-0.411 1.56-0.225 0.775-0.489 1.537t-0.566 1.51q-0.303 0.748-0.643 1.48-0.34 0.731-0.716 1.445-0.377 0.713-0.789 1.407-0.412 0.693-0.859 1.365c-5.081 7.769-12.39 12.68-21.444 14.579-7.974 0.485-15.868-0.227-22.72-4.707q-0.627-0.414-1.232-0.859t-1.187-0.92-1.139-0.979q-0.558-0.503-1.089-1.034-0.532-0.531-1.036-1.088-0.504-0.556-0.98-1.138-0.476-0.581-0.922-1.186-0.445-0.604-0.861-1.23-0.415-0.626-0.798-1.273-0.383-0.646-0.733-1.31-0.35-0.665-0.667-1.346-0.316-0.681-0.598-1.378-0.282-0.696-0.528-1.406-0.247-0.709-0.457-1.43-0.211-0.721-0.385-1.452-0.175-0.73-0.312-1.469-0.165-0.82-0.29-1.646-0.124-0.827-0.207-1.659t-0.124-1.667q-0.042-0.836-0.041-1.672 0-0.836 0.042-1.671t0.126-1.667q0.083-0.832 0.208-1.659 0.125-0.826 0.291-1.646 0.166-0.819 0.373-1.63 0.207-0.81 0.453-1.609 0.247-0.799 0.534-1.584 0.286-0.786 0.611-1.556t0.688-1.523q0.363-0.754 0.764-1.488 0.4-0.734 0.836-1.447 0.437-0.713 0.908-1.404c5.288-7.799 12.494-11.845 21.611-13.584z"/>
  <g>
    <path d="m328.45 272.95q0.25 3.621 0.31 7.251c-2.615 1.016-6.271 2.898-9.058 1.564-1.116-0.534-1.913-1.827-2.213-2.999-0.308-1.197-0.375-2.497-0.504-3.724 2.986 0.228 8.018 1.807 10.71 0.318 0.654-0.362 0.632-1.7 0.755-2.41z" fill-opacity=".2182"/>
    <path d="m304.32 273.43c-0.01-3.375 0.037-6.702 0.31-10.067 0.068 6.093-0.056 12.228 0.193 18.314-2.78 1.164-5.508 2.835-8.551 1.791-2.504-2.193-2.516-5.809-2.964-8.912l0.362 0.254c3.22 0.573 7.415-0.78 10.65-1.38z" fill-opacity=".25797"/>
    <path d="m354.39 277c-0.171-5.207-0.552-10.643 0.095-15.815 0.12 5.977 1.229 13.842-1e-3 19.61-1.976 1.769-5.131 1.739-7.668 1.574-1.384-0.089-2.877-0.589-3.839-1.627-3.212-3.466-1.734-13.839-1.591-18.444 0.646 4.002 0.279 8.533 0.31 12.603 1.85-0.204 3.692-0.565 5.527-0.874 2.367 1.039 4.777 1.99 7.167 2.973z" fill-opacity=".25797"/>
  </g>
  <path d="m271.14 226.52c-2.037-1.481-3.878-3.045-5.635-4.851-12.638-12.979-15.987-30.941-15.67-48.436 0.42-23.241 8.307-44.083 25.207-60.281 15.199-14.569 36.675-24.184 57.575-26.418 6.545-0.7 13.113-0.493 19.679-0.35l0.668 0.692c-3.03 1.705-7.946 1.121-11.394 1.863-2.81 0.604-5.618 1.469-8.387 2.243-34.751 9.723-59.887 26.641-70.004 62.694-5.578 19.877-10.023 39.984 0.77699 58.987 2.367 4.164 5.299 8.43 8.733 11.787-0.485 0.721-0.908 1.481-1.549 2.07z" fill="#fafafa" fill-opacity=".79028"/>
  <path d="m408.46 110.13c9.203 4.237 20.271 23.192 23.749 32.573 7.352 19.836 6.026 45.589-2.802 64.771-7.8 16.95-21.401 29.079-38.915 35.344-2.359 0.844-4.781 1.54-7.186 2.243-0.032 11.349 2.68 29.965-6.155 38.557-1.467 1.427-3.519 2.972-5.641 3.114-1.215 0.081-2.182-0.365-2.942-1.31-1.697-2.111-1.514-5.697-1.552-8.274 2.142-0.126 5.722 0.011 7.41-1.449 5.046-4.367 2.398-29.691 2.261-37.017 6.68-3.293 13.291-6.709 19.354-11.063 16.278-11.691 28.456-31.628 31.559-51.419 3.873-24.701-4.724-46.501-19.14-66.07z" fill-opacity=".2182"/>
  <path d="m272.69 224.45c6.924 6.241 15.617 9.999 22.467 16.024 0.485 7.464 2.688 26.684 0.564 33.406-0.873 0.795-0.958 0.705-2.044 0.942l-0.362-0.254q-0.28-10.446-0.728-20.887c-0.132-3.018-0.245-6.519-1.529-9.292-1.442-3.114-16.081-14.352-19.917-17.869 0.641-0.589 1.064-1.349 1.549-2.07z" fill="#fafafa" fill-opacity=".79028"/>
  <g fill="#fff">
    <path d="m374.34 199.98c-0.244-0.06-0.487-0.117-0.73-0.18-4.68-1.224-8.924-3.916-11.277-8.247q-0.386-0.702-0.697-1.44-0.312-0.738-0.546-1.503-0.234-0.766-0.388-1.552t-0.227-1.584q-0.073-0.797-0.063-1.598t0.102-1.596q0.091-0.796 0.264-1.578 0.174-0.782 0.426-1.542c1.402-4.162 4.711-7.471 8.653-9.308 4.697-2.188 8.69-1.828 13.396-0.219-5.119 5.225-9.573 10.994-9.593 18.697-0.01 3.297 1.779 8.818 0.68 11.65z" fill-opacity=".7194"/>
    <path d="m383.26 169.64c4.407 2.35 8.012 5.354 9.621 10.283 1.247 3.817 0.739 7.782-1.113 11.315-2.232 4.255-6.091 7.154-10.699 8.396-2.176 0.586-4.496 0.659-6.722 0.353 1.099-2.832-0.688-8.353-0.68-11.65 0.02-7.703 4.474-13.472 9.593-18.697z" fill-opacity=".17732"/>
    <path d="m288.97 198.49c-3.888-1.492-7.16-3.25-9.601-6.76-2.221-3.193-2.85-7.121-2.134-10.908 0.728-3.857 2.814-7.421 6.106-9.627 4.687-3.141 9.739-2.536 14.931-1.414-5.587 5.725-10.116 11.443-10.114 19.892 0 2.968 0.793 5.861 0.812 8.817z" fill-opacity=".7194"/>
    <path d="m298.28 169.79c4.441 2.002 7.998 4.576 9.744 9.32q0.237 0.652 0.405 1.325 0.167 0.673 0.263 1.36 0.095 0.687 0.118 1.38 0.023 0.694-0.028 1.385-0.05 0.692-0.173 1.375-0.123 0.682-0.318 1.348-0.194 0.666-0.457 1.308-0.264 0.642-0.593 1.252c-2.217 4.17-6.335 7.035-10.845 8.226q-1.814 0.479-3.687 0.587-1.874 0.109-3.731-0.157c-0.019-2.956-0.812-5.849-0.812-8.817 0-8.449 4.527-14.167 10.114-19.892z" fill-opacity=".17732"/>
  </g>
  <text x="347.74176" y="373.92365" fill="#000000" font-family="Carlito" font-size="75px" opacity=".9" stroke="#666" stroke-linecap="round" stroke-linejoin="round" stroke-opacity=".18439" stroke-width="5.9399" text-align="center" text-anchor="middle" style="line-height:0.96;paint-order:stroke fill markers" xml:space="preserve"><tspan x="347.74176" y="373.92365" fill="#000000" font-family="Carlito" font-size="74.424px" stroke="#060600" stroke-opacity=".18439" stroke-width="5.9399" style="font-variant-caps:normal;font-variant-east-asian:normal;font-variant-ligatures:normal;font-variant-numeric:normal;paint-order:stroke fill markers">MetaGame</tspan></text>
</svg>
